<?xml version="1.0" encoding="utf-8"?>
<COLLADA version="1.4.0" xmlns="http://www.collada.org/2005/11/COLLADASchema">
	<asset>
		<contributor>
			<author>Illusoft Collada 1.4.0 plugin for Blender - http://colladablender.illusoft.com</author>
			<authoring_tool>Blender v:249 - Illusoft Collada Exporter v:0.3.162</authoring_tool>
			<comments></comments>
			<copyright></copyright>
			<source_data>file:///Users/percy/Sites/nikart/source_files/3d/papervision3d/spaceship_pv3d/meshes/spaceship_05.blend</source_data>
		</contributor>
		<created>2010-01-25T01:01:18.340746</created>
		<modified>2010-01-25T01:01:18.340798</modified>
		<unit meter="0.01" name="centimeter"/>
		<up_axis>Z_UP</up_axis>
	</asset>
	<library_effects>
		<effect id="ship_a02_jpg_001-fx" name="ship_a02_jpg_001-fx">
			<profile_COMMON>
				<newparam sid="ship_a02_jpg_001-surface">
					<surface type="2D">
						<init_from>ship_a02_jpg_001-img</init_from>
						<format>A8R8G8B8</format>
					</surface>
				</newparam>
				<newparam sid="ship_a02_jpg_001-sampler">
					<sampler2D>
						<source>ship_a02_jpg_001-surface</source>
						<minfilter>LINEAR_MIPMAP_LINEAR</minfilter>
						<magfilter>LINEAR</magfilter>
					</sampler2D>
				</newparam>
				<technique sid="blender">
					<phong>
						<emission>
							<color>0.00000 0.00000 0.00000 1</color>
						</emission>
						<ambient>
							<color>0.40000 0.40000 0.40000 1</color>
						</ambient>
						<diffuse>
							<texture texcoord="CHANNEL1" texture="ship_a02_jpg_001-sampler"/>
						</diffuse>
						<specular>
							<color>0.50000 0.50000 0.50000 1</color>
						</specular>
						<shininess>
							<float>12.5</float>
						</shininess>
						<reflective>
							<color>1.00000 1.00000 1.00000 1</color>
						</reflective>
						<reflectivity>
							<float>0.0</float>
						</reflectivity>
						<transparent>
							<color>1 1 1 1</color>
						</transparent>
						<transparency>
							<float>0.0</float>
						</transparency>
					</phong>
				</technique>
			</profile_COMMON>
		</effect>
	</library_effects>
	<library_images>
		<image id="ship_a02_jpg_001-img" name="ship_a02_jpg_001-img">
			<init_from>../../meshes/ship_a02.jpg</init_from>
		</image>
	</library_images>
	<library_materials>
		<material id="ship_a02_jpg_001" name="ship_a02_jpg_001">
			<instance_effect url="#ship_a02_jpg_001-fx"/>
		</material>
	</library_materials>
	<library_geometries>
		<geometry id="ship_purple-Geometry" name="ship_purple-Geometry">
			<mesh>
				<source id="ship_purple-Geometry-Position">
					<float_array count="444" id="ship_purple-Geometry-Position-array">0.22363 0.82953 -0.05039 0.22177 0.99902 0.34912 0.00503 -0.62268 -0.04969 -0.00210 1.11405 0.40252 0.00355 -0.62267 0.40249 0.72733 0.33327 -0.39056 0.85155 0.33285 -0.31271 0.90877 -0.62284 -0.74267 1.00576 -0.66383 -0.84754 1.00437 -0.23819 -0.84753 0.95680 -1.65137 -0.79103 0.86160 -0.05926 -0.76529 0.00661 -1.03225 -0.12453 0.00614 -1.23296 0.21702 0.00817 -1.29585 -0.33998 0.00830 -1.46063 -0.21550 0.00905 -1.38418 -0.51912 0.00929 -1.53310 -0.44692 0.03761 -1.54557 -0.57974 0.00955 -1.45464 -0.60279 0.00987 -1.59148 -0.56384 0.01000 -1.53236 -0.66380 0.01054 -1.73770 -0.62386 0.02580 -1.71191 -0.66492 0.01068 -1.73866 -0.66684 0.14535 1.10220 0.53373 -0.00302 1.23442 0.56274 -0.00202 0.90379 0.58688 -0.00347 1.22521 0.70969 0.10372 1.45783 0.78542 -0.00483 1.55892 0.79328 0.04401 -0.33151 0.77525 0.49797 0.23141 0.06048 0.49358 0.71150 0.06347 0.25915 0.93516 -0.03045 0.40765 0.99714 0.06373 0.28066 1.18361 0.16237 0.37520 1.18176 0.07049 0.21085 1.16536 0.06888 -0.84333 -0.48707 -0.30712 -0.87449 -0.23192 -0.87782 -0.99163 -0.23153 -0.84094 -0.88246 -1.64222 -0.75011 -0.89877 -1.64513 -0.74243 -0.17076 -1.15236 0.20865 -0.09531 -1.25836 -0.28748 -0.09517 -1.38977 -0.19813 -0.05253 -1.39728 -0.51476 -0.01826 -1.46057 -0.60546 -0.00477 -1.71084 -0.62184 -0.08873 1.45653 0.84264 -0.49422 0.23472 0.06375 -0.25937 0.93689 -0.02874 -0.29003 1.04805 0.17035 -0.40890 0.99987 0.06642 -0.21931 0.98264 0.07016 -0.28376 1.18549 0.16424 0.22677 -0.53772 0.34909 0.85423 -0.49273 -0.31272 0.73002 -0.49232 -0.39057 0.88747 -0.23780 -0.88363 0.90694 -0.05941 -0.74266 0.86344 -0.62269 -0.76530 0.88885 -0.66344 -0.88364 0.95151 -0.71349 -0.79041 0.91477 -0.71332 -0.74780 0.89849 -0.71031 -0.75538 0.91339 -1.64333 -0.81124 0.90378 -1.64818 -0.75601 0.90809 -0.70545 -0.81062 0.92006 -1.65120 -0.74843 0.18259 -1.15354 0.20748 0.22808 -0.53773 -0.05042 0.18300 -0.97598 -0.09471 0.11120 -1.39046 -0.19882 0.11107 -1.25904 -0.28816 0.07068 -1.39769 -0.51516 0.07085 -1.50086 -0.46557 0.03742 -1.46076 -0.60564 0.02566 -1.71094 -0.62194 0.03796 -1.57340 -0.65848 0.01154 -2.00056 -0.66755 0.22244 0.79146 0.34911 0.14562 1.02011 0.53372 0.10187 1.16244 0.71153 0.10251 0.96540 0.71153 0.13266 0.91394 0.77651 0.07941 1.45596 0.84209 -0.00503 1.52792 0.88364 0.09061 0.92946 0.86406 -0.00248 0.80080 0.82949 -0.00221 0.80296 0.74396 0.04033 0.80066 0.77530 0.34668 0.65763 -0.07982 0.15185 0.90218 0.12052 0.28779 1.04612 0.16844 0.32760 0.92462 -0.03449 0.32012 1.15590 -0.02444 0.21814 0.98118 0.06872 0.25166 1.16399 -0.01812 0.00041 0.76683 -0.01924 -0.71861 -0.48748 -0.38580 -0.21988 -0.53623 0.35056 -0.84602 0.33852 -0.30711 -0.72130 0.33810 -0.38578 -0.85056 -0.05354 -0.75964 -0.84873 -0.61697 -0.75965 -0.89421 -0.61682 -0.73672 -0.89605 -0.05339 -0.73671 -0.99025 -0.65716 -0.84095 -0.87310 -0.65756 -0.87783 -0.89958 -0.70727 -0.74182 -0.93604 -0.70719 -0.78418 -0.88327 -0.70436 -0.74950 -0.89174 -1.63731 -0.80529 -0.89255 -0.69945 -0.80468 -0.93523 -1.64505 -0.78479 -0.21858 -0.53624 -0.04895 -0.17035 -0.97480 -0.09354 -0.05235 -1.50044 -0.46517 -0.01807 -1.54538 -0.57956 -0.01772 -1.57322 -0.65830 -0.00462 -1.71181 -0.66482 0.00006 0.44824 0.40251 -0.22421 0.79295 0.35059 -0.15035 1.10319 0.53470 -0.15008 1.02110 0.53470 -0.10778 0.96610 0.71222 -0.10842 1.16314 0.71223 -0.00236 0.88268 0.70968 -0.13802 0.91485 0.77740 -0.11268 1.45855 0.78613 -0.09665 0.93008 0.86468 -0.00266 0.81585 0.86806 -0.04494 0.80094 0.77558 -0.34477 0.65994 -0.07753 -0.49297 0.71479 0.06673 -0.22489 1.00051 0.35059 -0.32773 0.92680 -0.03232 -0.15283 0.90319 0.12152 -0.22303 0.83102 -0.04892 -0.32182 1.15805 -0.02232 -0.37770 1.18428 0.07297 -0.25345 1.16568 -0.01646 -0.21321 1.16677 0.07028 0.00120 -0.33137 0.82944 -0.04125 -0.33123 0.77553 0.00148 -0.32921 0.74391</float_array>
					<technique_common>
						<accessor count="148" source="#ship_purple-Geometry-Position-array" stride="3">
							<param type="float" name="X"></param>
							<param type="float" name="Y"></param>
							<param type="float" name="Z"></param>
						</accessor>
					</technique_common>
				</source>
				<source id="ship_purple-Geometry-Normals">
					<float_array count="876" id="ship_purple-Geometry-Normals-array">0.29505 0.00098 -0.95548 0.29505 0.00098 -0.95548 -0.14403 0.02120 -0.98935 -0.00330 0.00001 -0.99999 0.23855 0.75043 -0.61639 -0.56551 0.80724 -0.16902 0.23240 0.00074 0.97262 0.23240 0.00074 0.97262 0.09030 -0.99591 0.00030 0.02460 -0.99870 -0.04457 -0.23352 -0.00074 -0.97235 -0.56088 -0.00181 -0.82790 -0.09745 0.98797 -0.12009 0.30533 0.82080 -0.48277 0.72560 0.00235 0.68811 0.72560 0.00235 0.68811 -0.94240 -0.00306 -0.33446 -0.94240 -0.00306 -0.33446 0.37677 0.70797 -0.59735 0.31669 0.70942 -0.62962 0.99217 0.00323 0.12488 0.99217 0.00323 0.12488 -0.17156 -0.94783 0.26867 -0.13833 -0.95266 0.27073 -0.97793 -0.00318 -0.20892 -0.97793 -0.00318 -0.20892 0.35575 0.60946 -0.70852 0.24616 0.55998 -0.79110 0.73461 0.00238 0.67848 0.73461 0.00238 0.67848 -0.13142 -0.98527 -0.10942 -0.13143 -0.98527 -0.10942 0.16754 -0.81725 -0.55139 0.08065 -0.85457 -0.51304 -0.44553 -0.07722 0.89193 -0.43276 -0.07960 0.89799 -0.88679 -0.46108 -0.03167 -0.90378 -0.38310 -0.19082 0.73613 0.01037 0.67676 0.75501 -0.07556 0.65134 -0.42248 -0.00299 0.90637 -0.42249 -0.00299 0.90636 -0.98512 -0.00545 -0.17178 -0.98512 -0.00545 -0.17177 0.42248 0.00299 -0.90637 0.42248 0.00299 -0.90637 0.75733 0.00385 0.65302 0.75733 0.00385 0.65302 -0.04320 0.10484 -0.99355 0.10821 0.17911 -0.97786 0.32118 -0.27412 0.90648 0.15627 -0.23198 0.96009 0.99738 -0.07231 0.00327 0.99378 -0.09662 -0.05542 0.38969 -0.81413 0.43050 0.47904 -0.79231 0.37784 -0.04363 0.57124 -0.81962 0.16101 0.62516 -0.76371 0.98508 -0.14898 -0.08620 0.97546 -0.12311 -0.18256 0.51539 -0.81716 0.25811 0.50891 -0.81987 0.26233 -0.04708 0.85616 -0.51455 0.21958 0.87542 -0.43060 0.98999 -0.07866 -0.11720 0.98853 -0.06407 -0.13675 0.51704 -0.76479 0.38439 0.84885 -0.52706 -0.04076 0.20692 0.76530 -0.60951 0.10148 0.76124 -0.64048 0.96499 -0.11230 -0.23702 0.95308 -0.08645 -0.29011 0.00051 0.42468 -0.90535 0.72783 0.42607 -0.53733 0.99999 0.00326 0.00327 0.22328 0.02574 -0.97442 0.09967 0.01499 -0.99491 0.75517 -0.24592 0.60765 0.33735 -0.25557 0.90602 0.99623 -0.08036 0.03281 0.99614 -0.08766 0.00530 0.16181 -0.16121 0.97357 0.12045 0.00308 -0.99271 0.99877 -0.04939 0.00445 0.47284 0.04678 0.87990 0.72560 0.00235 0.68811 0.06912 -0.02159 0.99737 0.25901 0.77296 -0.57918 0.64003 0.75242 -0.15562 0.66183 -0.32361 0.67621 0.53162 -0.31565 0.78597 0.92457 0.00300 0.38101 0.92457 0.00300 0.38101 0.97161 0.00316 0.23655 0.97161 0.00316 0.23655 0.66976 0.74099 0.04849 0.50719 0.84634 -0.16266 0.59266 -0.79895 -0.10214 0.61533 -0.77715 -0.13193 0.99927 0.00325 -0.03806 0.92173 0.05533 -0.38387 0.16009 0.24046 -0.95737 0.15300 0.23888 -0.95892 0.46591 -0.57563 -0.67200 0.47933 -0.34593 -0.80658 0.91771 0.04236 0.39498 0.90336 0.03705 0.42728 0.67059 0.70122 0.24207 0.70082 0.63678 0.32151 0.69555 -0.57156 0.43534 0.75412 -0.61062 0.24175 0.52382 -0.41903 -0.74164 0.63184 -0.59170 0.50067 0.78470 0.00253 0.61987 0.78470 0.00253 0.61987 0.59325 0.00197 -0.80502 0.59324 0.00197 -0.80502 0.72560 0.00235 0.68811 0.72560 0.00235 0.68811 0.72560 0.00235 0.68811 0.08370 0.94807 -0.30686 0.25252 0.79156 -0.55647 -0.61058 0.04113 -0.79089 -0.71170 0.69813 -0.07808 -0.73769 0.67056 0.07849 0.01649 0.18014 -0.98350 -0.03269 0.16503 -0.98575 0.81330 0.24418 0.52813 0.62504 0.66869 0.40271 0.65488 0.17173 -0.73597 0.67913 0.20494 -0.70482 -0.79160 0.35948 -0.49411 -0.09855 0.99321 -0.06182 -0.79977 0.35266 -0.48579 -0.29876 0.82665 -0.47685 -0.81461 -0.01664 0.57977 -0.79782 -0.03213 0.60203 0.67617 0.09209 0.73096 0.69605 0.06761 0.71480 0.75462 0.05284 -0.65403 0.83270 0.16568 -0.52835 -0.05077 0.05207 -0.99735 -0.08700 0.04044 -0.99539 -0.92937 -0.03651 -0.36733 -0.90533 -0.00673 -0.42466 -0.30024 -0.00096 -0.95386 -0.30024 -0.00096 -0.95386 0.13790 0.02215 -0.99020 -0.00330 0.00001 -0.99999 -0.23772 0.74920 -0.61821 0.56708 0.80706 -0.16451 -0.22665 -0.00076 0.97398 -0.22665 -0.00076 0.97398 -0.09683 -0.99530 -0.00031 -0.03155 -0.99850 -0.04474 0.22778 0.00076 -0.97371 0.55882 0.00184 -0.82928 0.10314 0.98749 -0.11929 -0.30346 0.81993 -0.48542 -0.72583 -0.00238 0.68787 -0.72583 -0.00238 0.68787 0.94410 0.00308 -0.32965 0.94410 0.00308 -0.32966 -0.37620 0.70590 -0.60015 -0.31623 0.70760 -0.63190 -0.99294 -0.00324 0.11857 -0.99294 -0.00323 0.11857 0.16727 -0.94817 0.27019 0.13393 -0.95294 0.27196 0.97916 0.00319 -0.20306 0.97916 0.00319 -0.20306 -0.35620 0.60686 -0.71052 -0.24746 0.55795 -0.79212 -0.73495 -0.00241 0.67812 -0.73495 -0.00240 0.67811 0.12438 -0.98625 -0.10878 0.12437 -0.98625 -0.10878 -0.17610 -0.81584 -0.55081 -0.08960 -0.85382 -0.51280 0.44876 -0.07395 0.89059 0.43613 -0.07641 0.89664 0.88861 -0.45792 -0.02602 0.90614 -0.37980 -0.18617 -0.73649 0.00563 0.67642 -0.75553 -0.08092 0.65009 0.42630 -0.00022 0.90458 0.42631 -0.00022 0.90458 0.98618 0.00096 -0.16570 0.98618 0.00096 -0.16570 -0.42630 0.00022 -0.90458 -0.42631 0.00022 -0.90458 -0.75795 -0.00108 0.65231 -0.75796 -0.00108 0.65230 0.03737 0.10515 -0.99375 -0.11334 0.17818 -0.97745 -0.31789 -0.27693 0.90678 -0.15171 -0.23332 0.96049 -0.99689 -0.07872 -0.00326 -0.99277 -0.10288 -0.06180 -0.39151 -0.81505 0.42709 -0.48058 -0.79334 0.37370 0.04204 0.57160 -0.81946 -0.16184 0.62392 -0.76454 -0.98360 -0.15492 -0.09236 -0.97363 -0.12895 -0.18820 -0.51718 -0.81740 0.25375 -0.51074 -0.82010 0.25801 0.04939 0.85629 -0.51412 -0.21685 0.87512 -0.43259 -0.98872 -0.08489 -0.12336 -0.98724 -0.07032 -0.14285 -0.51827 -0.76615 0.38000 -0.84725 -0.52920 -0.04604 -0.20593 0.76428 -0.61112 -0.10065 0.76070 -0.64125 -0.96300 -0.11806 -0.24225 -0.95105 -0.09222 -0.29495 -0.00366 0.42466 -0.90535 -0.72777 0.42086 -0.54150 -0.99999 -0.00325 -0.00327 -0.22890 0.02419 -0.97315 -0.10600 0.01430 -0.99426 -0.75551 -0.25172 0.60485 -0.33405 -0.25849 0.90642 -0.99588 -0.08678 0.02627 -0.99557 -0.09404 -0.00122 -0.15674 -0.16252 0.97418 -0.12679 0.00228 -0.99193 -0.99844 -0.05586 -0.00209 -0.46943 0.04397 0.88187 -0.72583 -0.00238 0.68787 -0.06273 -0.02203 0.99779 -0.25785 0.77179 -0.58125 -0.63926 0.75203 -0.16061 -0.66155 -0.32891 0.67392 -0.53029 -0.32015 0.78505 -0.92633 -0.00302 0.37670 -0.92633 -0.00302 0.37670 -0.97298 -0.00317 0.23089 -0.97298 -0.00317 0.23088 -0.66916 0.74179 0.04443 -0.50493 0.84691 -0.16672 -0.59448 -0.79719 -0.10530 -0.61685 -0.77542 -0.13498 -0.99900 -0.00325 -0.04457 -0.92021 0.04912 -0.38834 -0.16455 0.23904 -0.95697 -0.15751 0.23752 -0.95853 -0.47058 -0.57426 -0.66991 -0.48345 -0.34654 -0.80386 -0.91966 0.03659 0.39102 -0.90527 0.03135 0.42368 -0.66990 0.70270 0.23968 -0.70064 0.63786 0.31974 -0.69562 -0.57535 0.43022 -0.75383 -0.61326 0.23592 -0.52728 -0.41909 -0.73914 -0.63201 -0.59534 0.49612 -0.78564 -0.00258 0.61868 -0.78564 -0.00258 0.61868 -0.59482 -0.00190 -0.80385 -0.59482 -0.00190 -0.80386 -0.72583 -0.00238 0.68787 -0.72583 -0.00238 0.68787 -0.72583 -0.00238 0.68787 -0.07945 0.94819 -0.30761 -0.25112 0.79054 -0.55856 0.60930 0.04536 -0.79164 0.71170 0.69868 -0.07297 0.73732 0.67046 0.08274 -0.02178 0.17998 -0.98343 0.02730 0.16527 -0.98587 -0.81491 0.24088 0.52715 -0.62341 0.67053 0.40217 -0.65541 0.16664 -0.73666 -0.67939 0.19961 -0.70611 0.79183 0.36513 -0.48958 0.10464 0.99263 -0.06108 0.80003 0.35834 -0.48120 0.30073 0.82745 -0.47422 0.81341 -0.01126 0.58158 0.79681 -0.02676 0.60363 -0.67568 0.08835 0.73188 -0.69587 0.06355 0.71535 -0.75408 0.04763 -0.65505 -0.83177 0.15961 -0.53168 0.04456 0.05241 -0.99763 0.08079 0.04103 -0.99589 0.93128 -0.03062 -0.36302 0.90712 -0.00084 -0.42087 -0.00334 -0.99999 -0.00003 -0.00355 -0.99766 -0.06830</float_array>
					<technique_common>
						<accessor count="292" source="#ship_purple-Geometry-Normals-array" stride="3">
							<param type="float" name="X"></param>
							<param type="float" name="Y"></param>
							<param type="float" name="Z"></param>
						</accessor>
					</technique_common>
				</source>
				<source id="ship_purple-Geometry-UV">
					<float_array count="1752" id="ship_purple-Geometry-UV-array">0.47468 0.56680 0.58530 0.56381 0.56204 0.54651 0.56204 0.54651 0.45920 0.54721 0.47468 0.56680 0.88722 0.80444 0.90535 0.75963 0.48063 0.80358 0.90535 0.75963 0.48616 0.74645 0.48063 0.80358 0.30852 0.69554 0.22046 0.69602 0.23893 0.63767 0.23893 0.63767 0.27931 0.65320 0.30852 0.69554 0.75127 0.92975 0.53502 0.92821 0.53594 0.97249 0.53594 0.97249 0.79594 0.97409 0.75127 0.92975 0.18578 0.45503 0.18961 0.36334 0.06298 0.27855 0.06298 0.27855 0.03338 0.29756 0.18578 0.45503 0.48616 0.74645 0.90535 0.75963 0.84422 0.72931 0.49624 0.63553 0.48616 0.74645 0.74690 0.63679 0.79781 0.06674 0.75195 0.11374 0.70384 0.05869 0.40216 0.47455 0.42256 0.50799 0.33827 0.63059 0.80067 0.31193 0.46536 0.31131 0.67039 0.23671 0.49870 0.12814 0.69460 0.12400 0.79374 0.23141 0.49624 0.63553 0.74690 0.63679 0.63565 0.58554 0.63565 0.58554 0.47550 0.58905 0.49624 0.63553 0.42256 0.50799 0.40216 0.47455 0.49414 0.47369 0.49414 0.47369 0.49717 0.48442 0.42256 0.50799 0.69460 0.12400 0.49870 0.12814 0.46784 0.03664 0.46784 0.03664 0.60118 0.03661 0.69460 0.12400 0.03338 0.29756 0.06298 0.27855 0.03057 0.18440 0.03057 0.18440 0.02121 0.18953 0.03338 0.29756 0.47550 0.58905 0.63565 0.58554 0.58530 0.56381 0.58530 0.56381 0.47468 0.56680 0.47550 0.58905 0.49717 0.48442 0.49414 0.47369 0.51848 0.45921 0.51848 0.45921 0.52288 0.47687 0.49717 0.48442 0.60118 0.03661 0.46784 0.03664 0.45805 0.00650 0.45805 0.00650 0.55879 0.00647 0.60118 0.03661 0.92593 0.16904 0.84945 0.13085 0.88562 -0.00107 0.88562 -0.00107 0.99431 0.05745 0.92593 0.16904 0.47468 0.56680 0.45920 0.54721 0.44157 0.56562 0.44157 0.56562 0.45443 0.57196 0.47468 0.56680 0.02121 0.18953 0.03057 0.18440 0.01032 0.16292 0.01032 0.16292 0.00370 0.16716 0.02121 0.18953 0.47550 0.58905 0.47468 0.56680 0.45443 0.57196 0.45443 0.57196 0.44708 0.58289 0.47550 0.58905 0.45805 0.00650 0.46784 0.03664 0.44642 0.03503 0.44642 0.03503 0.44633 0.02315 0.45805 0.00650 0.93851 0.50894 0.93851 0.49573 0.63349 0.49573 0.63349 0.49573 0.63349 0.50894 0.93851 0.50894 0.93851 0.49573 0.93851 0.48253 0.63349 0.48253 0.63349 0.48253 0.63349 0.49573 0.93851 0.49573 0.93851 0.53559 0.93851 0.52221 0.63349 0.52221 0.63349 0.52221 0.63349 0.53559 0.93851 0.53559 0.93851 0.52221 0.93851 0.50894 0.63349 0.50894 0.63349 0.50894 0.63349 0.52221 0.93851 0.52221 0.48063 0.80358 0.48616 0.74645 0.36209 0.75215 0.36209 0.75215 0.32842 0.80102 0.48063 0.80358 0.53594 0.97249 0.53502 0.92821 0.45897 0.92803 0.45897 0.92803 0.45897 0.96815 0.53594 0.97249 0.48348 0.21152 0.46439 0.31062 0.31184 0.27339 0.31184 0.27339 0.36627 0.18766 0.48348 0.21152 0.45897 0.96815 0.45897 0.92803 0.38485 0.92958 0.38485 0.92958 0.38485 0.96216 0.45897 0.96815 0.34359 0.69579 0.33311 0.65940 0.38868 0.67912 0.38868 0.67912 0.39770 0.69579 0.34359 0.69579 0.36627 0.18766 0.31184 0.27339 0.25443 0.15562 0.25443 0.15562 0.30112 0.13384 0.36627 0.18766 0.38485 0.96216 0.38485 0.92958 0.30152 0.93093 0.30152 0.93093 0.30730 0.95216 0.38485 0.96216 0.39770 0.69579 0.38868 0.67912 0.43228 0.68895 0.43228 0.68895 0.43005 0.69579 0.39770 0.69579 0.30112 0.13384 0.25443 0.15562 0.23122 0.08525 0.23122 0.08525 0.26278 0.06971 0.30112 0.13384 0.30730 0.95216 0.30152 0.93093 0.25848 0.92971 0.25848 0.92971 0.27567 0.94749 0.30730 0.95216 0.43005 0.69579 0.43228 0.68895 0.45043 0.69442 0.45043 0.69442 0.44798 0.69579 0.43005 0.69579 0.26278 0.06971 0.23122 0.08525 0.21280 0.06965 0.21280 0.06965 0.24364 0.05288 0.26278 0.06971 0.44798 0.69579 0.45043 0.69442 0.46834 0.69442 0.46834 0.69442 0.46360 0.69579 0.44798 0.69579 0.24364 0.05288 0.21280 0.06965 0.20899 0.05243 0.24362 0.92905 0.23551 0.93892 0.20799 0.93445 0.20799 0.93445 0.20266 0.92905 0.24362 0.92905 0.27567 0.94749 0.25848 0.92971 0.23323 0.92975 0.23323 0.92975 0.23801 0.93790 0.27567 0.94749 0.20899 0.05243 0.21280 0.06965 0.19061 0.06563 0.19061 0.06563 0.18310 0.05386 0.20899 0.05243 0.23801 0.93790 0.23323 0.92975 0.14811 0.92894 0.20266 0.92905 0.20799 0.93445 0.15067 0.92905 0.18310 0.05386 0.19061 0.06563 0.14175 0.05453 0.88922 0.95342 0.98458 0.95113 1.00240 0.93103 0.86100 0.31094 0.80067 0.31193 0.67039 0.23671 1.00240 0.93103 0.86848 0.93103 0.88922 0.95342 0.23893 0.63767 0.22046 0.69602 0.18816 0.69563 0.18816 0.69563 0.20195 0.65560 0.23893 0.63767 0.76159 0.93231 0.81504 0.98347 0.86700 0.96618 0.86700 0.96618 0.85146 0.93231 0.76159 0.93231 0.80067 0.31193 0.86100 0.31094 0.88999 0.35159 0.88999 0.35159 0.85902 0.35023 0.80067 0.31193 0.85902 0.35023 0.88999 0.35159 0.90924 0.40006 0.90924 0.40006 0.83490 0.39678 0.85902 0.35023 0.20195 0.65560 0.18816 0.69563 0.16464 0.69584 0.16464 0.69584 0.17212 0.66673 0.20195 0.65560 0.24411 0.51142 0.27720 0.50172 0.26696 0.54193 0.26696 0.54193 0.24429 0.54386 0.24411 0.51142 0.83490 0.39678 0.90924 0.40006 0.98932 0.41969 0.98932 0.41969 0.81724 0.41147 0.83490 0.39678 0.17212 0.66673 0.16464 0.69584 0.11181 0.69575 0.11181 0.69575 0.12794 0.67702 0.17212 0.66673 0.24387 0.54877 0.26936 0.54552 0.27668 0.56349 0.27668 0.56349 0.24387 0.56063 0.24387 0.54877 0.81724 0.41147 0.98932 0.41969 0.98795 0.43524 0.98795 0.43524 0.82101 0.43278 0.81724 0.41147 0.12794 0.67702 0.11181 0.69575 0.10148 0.67812 0.10148 0.67812 0.11724 0.66932 0.12794 0.67702 0.25421 0.56829 0.27668 0.56349 0.26657 0.58380 0.26657 0.58380 0.24387 0.58987 0.24387 0.58128 0.27668 0.56349 0.25421 0.56829 0.24387 0.56063 0.24387 0.58128 0.25421 0.56829 0.26657 0.58380 0.93869 0.52282 0.93869 0.50906 0.63304 0.50906 0.63304 0.50906 0.63304 0.52282 0.93869 0.52282 0.93869 0.53660 0.93869 0.52282 0.63304 0.52282 0.63304 0.52282 0.63304 0.53660 0.93869 0.53660 0.86100 0.31094 0.67039 0.23671 0.79374 0.23141 0.67039 0.23671 0.46536 0.31131 0.49870 0.12814 0.79374 0.23141 0.67039 0.23671 0.49870 0.12814 0.78000 0.01771 0.70384 0.05869 0.74148 0.00934 0.33827 0.63059 0.29421 0.58459 0.40216 0.47455 0.48616 0.74645 0.84422 0.72931 0.74690 0.63679 0.81660 0.73435 0.79275 0.67453 0.87412 0.69673 0.87412 0.69673 0.85300 0.73488 0.81660 0.73435 0.80805 0.83616 0.81161 0.79907 0.84696 0.78795 0.84696 0.78795 0.84974 0.81308 0.80805 0.83616 0.86100 0.31094 0.79374 0.23141 0.85748 0.24822 0.85748 0.24822 0.86992 0.26347 0.86100 0.31094 0.79374 0.23141 0.79444 0.20263 0.84781 0.21074 0.84781 0.21074 0.85748 0.24822 0.79374 0.23141 0.84696 0.78795 0.81161 0.79907 0.85300 0.73488 0.78000 0.01771 0.79781 0.06674 0.70384 0.05869 0.81161 0.79907 0.81660 0.73435 0.85300 0.73488 0.27931 0.65320 0.30955 0.63631 0.30852 0.69554 0.85300 0.73488 0.87412 0.69673 0.90663 0.70420 0.90663 0.70420 0.90609 0.73485 0.85300 0.73488 0.86992 0.26347 0.85748 0.24822 0.90328 0.23946 0.90328 0.23946 0.90438 0.25740 0.86992 0.26347 0.85748 0.24822 0.84781 0.21074 0.90154 0.21402 0.90154 0.21402 0.90328 0.23946 0.85748 0.24822 0.84974 0.81308 0.84696 0.78795 0.91108 0.77152 0.91108 0.77152 0.91590 0.79349 0.84974 0.81308 0.84696 0.78795 0.85300 0.73488 0.90609 0.73485 0.90609 0.73485 0.91108 0.77152 0.84696 0.78795 0.47582 0.56733 0.56220 0.54701 0.58516 0.56361 0.56220 0.54701 0.47582 0.56733 0.46035 0.54759 0.47917 0.80392 0.90622 0.75928 0.88728 0.80420 0.90622 0.75928 0.47917 0.80392 0.48554 0.74659 0.30846 0.69556 0.23834 0.63785 0.22058 0.69605 0.23834 0.63785 0.30846 0.69556 0.27885 0.65326 0.75127 0.92975 0.53684 0.88991 0.53502 0.92821 0.53684 0.88991 0.75127 0.92975 0.80554 0.88872 0.18605 0.45451 0.06364 0.27927 0.19017 0.36283 0.06364 0.27927 0.18605 0.45451 0.03333 0.29759 0.48554 0.74659 0.84512 0.72889 0.90622 0.75928 0.74859 0.63679 0.48554 0.74659 0.49714 0.63593 0.71118 0.05840 0.80427 0.07166 0.74519 0.11434 0.40229 0.47336 0.33841 0.62892 0.42270 0.50680 0.80275 0.31185 0.67186 0.23726 0.46427 0.31163 0.49939 0.12950 0.79328 0.23181 0.69725 0.12512 0.49714 0.63593 0.63720 0.58578 0.74859 0.63679 0.63720 0.58578 0.49714 0.63593 0.47651 0.58956 0.42270 0.50680 0.49428 0.47250 0.40229 0.47336 0.49428 0.47250 0.42270 0.50680 0.49730 0.48323 0.69725 0.12512 0.46824 0.03809 0.49939 0.12950 0.46824 0.03809 0.69725 0.12512 0.60292 0.03789 0.03333 0.29759 0.03088 0.18444 0.06364 0.27927 0.03088 0.18444 0.03333 0.29759 0.02123 0.18942 0.47651 0.58956 0.58516 0.56361 0.63720 0.58578 0.58516 0.56361 0.47651 0.58956 0.47582 0.56733 0.49730 0.48323 0.51862 0.45802 0.49428 0.47250 0.51862 0.45802 0.49730 0.48323 0.52301 0.47569 0.60292 0.03789 0.45861 0.00812 0.46824 0.03809 0.45861 0.00812 0.60292 0.03789 0.56036 0.00797 0.92080 0.17628 0.93440 0.00074 0.98343 0.12807 0.93440 0.00074 0.92080 0.17628 0.84205 0.08126 0.47582 0.56733 0.44255 0.56607 0.46035 0.54759 0.44255 0.56607 0.47582 0.56733 0.45551 0.57247 0.02123 0.18942 0.01064 0.16285 0.03088 0.18444 0.01064 0.16285 0.02123 0.18942 0.00365 0.16718 0.47651 0.58956 0.45551 0.57247 0.47582 0.56733 0.45551 0.57247 0.47651 0.58956 0.44803 0.58341 0.45861 0.00812 0.44662 0.03651 0.46824 0.03809 0.44662 0.03651 0.45861 0.00812 0.44663 0.02470 0.93875 0.50780 0.63355 0.49462 0.93875 0.49462 0.63355 0.49462 0.93875 0.50780 0.63355 0.50780 0.93875 0.49462 0.63355 0.48144 0.93875 0.48144 0.63355 0.48144 0.93875 0.49462 0.63355 0.49462 0.93875 0.53460 0.63355 0.52099 0.93875 0.52099 0.63355 0.52099 0.93875 0.53460 0.63355 0.53460 0.93875 0.52099 0.63355 0.50780 0.93875 0.50780 0.63355 0.50780 0.93875 0.52099 0.63355 0.52099 0.47917 0.80392 0.36083 0.75260 0.48554 0.74659 0.36083 0.75260 0.47917 0.80392 0.32651 0.80169 0.53684 0.88991 0.45897 0.92803 0.53502 0.92821 0.45897 0.92803 0.53684 0.88991 0.45897 0.89552 0.48302 0.21193 0.31162 0.27345 0.46392 0.31077 0.31162 0.27345 0.48302 0.21193 0.36594 0.18792 0.45897 0.89552 0.38485 0.92958 0.45897 0.92803 0.38485 0.92958 0.45897 0.89552 0.38485 0.90204 0.34359 0.69579 0.38800 0.67791 0.33242 0.65818 0.38800 0.67791 0.34359 0.69579 0.39770 0.69579 0.36594 0.18792 0.25414 0.15566 0.31162 0.27345 0.25414 0.15566 0.36594 0.18792 0.30074 0.13394 0.38485 0.90204 0.30152 0.93093 0.38485 0.92958 0.30152 0.93093 0.38485 0.90204 0.30730 0.90971 0.39770 0.69579 0.43160 0.68774 0.38800 0.67791 0.43160 0.68774 0.39770 0.69579 0.43005 0.69579 0.30074 0.13394 0.23087 0.08530 0.25414 0.15566 0.23087 0.08530 0.30074 0.13394 0.26236 0.06981 0.30730 0.90971 0.25848 0.92971 0.30152 0.93093 0.25848 0.92971 0.30730 0.90971 0.27772 0.91274 0.43005 0.69579 0.44974 0.69320 0.43160 0.68774 0.44974 0.69320 0.43005 0.69579 0.44798 0.69579 0.26236 0.06981 0.21238 0.06965 0.23087 0.08530 0.21238 0.06965 0.26236 0.06981 0.24317 0.05291 0.44798 0.69579 0.46765 0.69320 0.44974 0.69320 0.46765 0.69320 0.44798 0.69579 0.46360 0.69579 0.24317 0.05291 0.20859 0.05248 0.21238 0.06965 0.24362 0.92905 0.20799 0.92366 0.23551 0.91919 0.20799 0.92366 0.24362 0.92905 0.20266 0.92905 0.27772 0.91274 0.23323 0.92975 0.25848 0.92971 0.23323 0.92975 0.27772 0.91274 0.23883 0.92038 0.20859 0.05248 0.19025 0.06560 0.21238 0.06965 0.19025 0.06560 0.20859 0.05248 0.18274 0.05385 0.23883 0.92038 0.14811 0.92894 0.23323 0.92975 0.20266 0.92905 0.15067 0.92905 0.20799 0.92366 0.18274 0.05385 0.14149 0.05443 0.19025 0.06560 0.88922 0.90865 1.00240 0.93103 0.98458 0.91093 0.86152 0.31080 0.67186 0.23726 0.80275 0.31185 1.00240 0.93103 0.88922 0.90865 0.86848 0.93103 0.23834 0.63785 0.18835 0.69568 0.22058 0.69605 0.18835 0.69568 0.23834 0.63785 0.20166 0.65581 0.76159 0.93231 0.86700 0.89844 0.81504 0.88115 0.86700 0.89844 0.76159 0.93231 0.85146 0.93231 0.80275 0.31185 0.89168 0.35190 0.86152 0.31080 0.89168 0.35190 0.80275 0.31185 0.85680 0.35055 0.85680 0.35055 0.90748 0.40026 0.89168 0.35190 0.90748 0.40026 0.85680 0.35055 0.83494 0.39652 0.20166 0.65581 0.16485 0.69603 0.18835 0.69568 0.16485 0.69603 0.20166 0.65581 0.17200 0.66700 0.24411 0.51142 0.22173 0.54141 0.21360 0.50098 0.22173 0.54141 0.24411 0.51142 0.24429 0.54386 0.83494 0.39652 0.99153 0.41937 0.90748 0.40026 0.99153 0.41937 0.83494 0.39652 0.81520 0.41133 0.17200 0.66700 0.11214 0.69608 0.16485 0.69603 0.11214 0.69608 0.17200 0.66700 0.12793 0.67741 0.24387 0.54877 0.21107 0.56349 0.21839 0.54552 0.21107 0.56349 0.24387 0.54877 0.24387 0.56063 0.81520 0.41133 0.98751 0.43492 0.99153 0.41937 0.98751 0.43492 0.81520 0.41133 0.82198 0.43255 0.12793 0.67741 0.10180 0.67856 0.11214 0.69608 0.10180 0.67856 0.12793 0.67741 0.11729 0.66978 0.23354 0.56829 0.22118 0.58380 0.21107 0.56349 0.22118 0.58380 0.24387 0.58128 0.24387 0.58987 0.21107 0.56349 0.24387 0.56063 0.23354 0.56829 0.24387 0.58128 0.22118 0.58380 0.23354 0.56829 0.93869 0.49535 0.63304 0.50906 0.93869 0.50906 0.63304 0.50906 0.93869 0.49535 0.63304 0.49535 0.93869 0.48159 0.63304 0.49535 0.93869 0.49535 0.63304 0.49535 0.93869 0.48159 0.63304 0.48159 0.86152 0.31080 0.79328 0.23181 0.67186 0.23726 0.67186 0.23726 0.49939 0.12950 0.46427 0.31163 0.79328 0.23181 0.49939 0.12950 0.67186 0.23726 0.73947 0.01477 0.77878 0.01528 0.80427 0.07166 0.33841 0.62892 0.40229 0.47336 0.29434 0.58340 0.48554 0.74659 0.74859 0.63679 0.84512 0.72889 0.81734 0.73411 0.87477 0.69632 0.79378 0.67465 0.87477 0.69632 0.81734 0.73411 0.85356 0.73434 0.80949 0.83439 0.84765 0.78685 0.81242 0.79798 0.84765 0.78685 0.80949 0.83439 0.85064 0.81169 0.86152 0.31080 0.85804 0.24792 0.79328 0.23181 0.85804 0.24792 0.86152 0.31080 0.87085 0.26299 0.79328 0.23181 0.84808 0.21068 0.79418 0.20308 0.84808 0.21068 0.79328 0.23181 0.85804 0.24792 0.85356 0.73434 0.81242 0.79798 0.84765 0.78685 0.73947 0.01477 0.80427 0.07166 0.71118 0.05840 0.81242 0.79798 0.85356 0.73434 0.81734 0.73411 0.27885 0.65326 0.30846 0.69556 0.30882 0.63633 0.85356 0.73434 0.90693 0.70387 0.87477 0.69632 0.90693 0.70387 0.85356 0.73434 0.90613 0.73449 0.87085 0.26299 0.90372 0.23956 0.85804 0.24792 0.90372 0.23956 0.87085 0.26299 0.90461 0.25787 0.85804 0.24792 0.90182 0.21342 0.84808 0.21068 0.90182 0.21342 0.85804 0.24792 0.90372 0.23956 0.85064 0.81169 0.91115 0.77074 0.84765 0.78685 0.91115 0.77074 0.85064 0.81169 0.91616 0.79242 0.84765 0.78685 0.90613 0.73449 0.85356 0.73434 0.90613 0.73449 0.84765 0.78685 0.91115 0.77074 0.99186 0.08698 0.91603 0.16317 0.84051 0.08578 0.99186 0.08698 0.84051 0.08578 0.91614 0.01523</float_array>
					<technique_common>
						<accessor count="876" source="#ship_purple-Geometry-UV-array" stride="2">
							<param type="float" name="S"></param>
							<param type="float" name="T"></param>
						</accessor>
					</technique_common>
				</source>
				<source id="ship_purple-Geometry-color">
					<float_array count="3504" id="ship_purple-Geometry-color-array">1.00000 1.00000 1.00000 1.00000 1.00000 1.00000 1.00000 1.00000 1.00000 1.00000 1.00000 1.00000 1.00000 1.00000 1.00000 1.00000 1.00000 1.00000 1.00000 1.00000 1.00000 1.00000 1.00000 1.00000 1.00000 1.00000 1.00000 1.00000 1.00000 1.00000 1.00000 1.00000 1.00000 1.00000 1.00000 1.00000 1.00000 1.00000 1.00000 1.00000 1.00000 1.00000 1.00000 1.00000 1.00000 1.00000 1.00000 1.00000 1.00000 1.00000 1.00000 1.00000 1.00000 1.00000 1.00000 1.00000 1.00000 1.00000 1.00000 1.00000 1.00000 1.00000 1.00000 1.00000 1.00000 1.00000 1.00000 1.00000 1.00000 1.00000 1.00000 1.00000 1.00000 1.00000 1.00000 1.00000 1.00000 1.00000 1.00000 1.00000 1.00000 1.00000 1.00000 1.00000 1.00000 1.00000 1.00000 1.00000 1.00000 1.00000 1.00000 1.00000 1.00000 1.00000 1.00000 1.00000 1.00000 1.00000 1.00000 1.00000 1.00000 1.00000 1.00000 1.00000 1.00000 1.00000 1.00000 1.00000 1.00000 1.00000 1.00000 1.00000 1.00000 1.00000 1.00000 1.00000 1.00000 1.00000 1.00000 1.00000 1.00000 1.00000 1.00000 1.00000 1.00000 1.00000 1.00000 1.00000 1.00000 1.00000 1.00000 1.00000 1.00000 1.00000 1.00000 1.00000 1.00000 1.00000 1.00000 1.00000 1.00000 1.00000 1.00000 1.00000 1.00000 1.00000 1.00000 1.00000 1.00000 1.00000 1.00000 1.00000 1.00000 1.00000 1.00000 1.00000 1.00000 1.00000 1.00000 1.00000 1.00000 1.00000 1.00000 1.00000 1.00000 1.00000 1.00000 1.00000 1.00000 1.00000 1.00000 1.00000 1.00000 1.00000 1.00000 1.00000 1.00000 1.00000 1.00000 1.00000 1.00000 1.00000 1.00000 1.00000 1.00000 1.00000 1.00000 1.00000 1.00000 1.00000 1.00000 1.00000 1.00000 1.00000 1.00000 1.00000 1.00000 1.00000 1.00000 1.00000 1.00000 1.00000 1.00000 1.00000 1.00000 1.00000 1.00000 1.00000 1.00000 1.00000 1.00000 1.00000 1.00000 1.00000 1.00000 1.00000 1.00000 1.00000 1.00000 1.00000 1.00000 1.00000 1.00000 1.00000 1.00000 1.00000 1.00000 1.00000 1.00000 1.00000 1.00000 1.00000 1.00000 1.00000 1.00000 1.00000 1.00000 1.00000 1.00000 1.00000 1.00000 1.00000 1.00000 1.00000 1.00000 1.00000 1.00000 1.00000 1.00000 1.00000 1.00000 1.00000 1.00000 1.00000 1.00000 1.00000 1.00000 1.00000 1.00000 1.00000 1.00000 1.00000 1.00000 1.00000 1.00000 1.00000 1.00000 1.00000 1.00000 1.00000 1.00000 1.00000 1.00000 1.00000 1.00000 1.00000 1.00000 1.00000 1.00000 1.00000 1.00000 1.00000 1.00000 1.00000 1.00000 1.00000 1.00000 1.00000 1.00000 1.00000 1.00000 1.00000 1.00000 1.00000 1.00000 1.00000 1.00000 1.00000 1.00000 1.00000 1.00000 1.00000 1.00000 1.00000 1.00000 1.00000 1.00000 1.00000 1.00000 1.00000 1.00000 1.00000 1.00000 1.00000 1.00000 1.00000 1.00000 1.00000 1.00000 1.00000 1.00000 1.00000 1.00000 1.00000 1.00000 1.00000 1.00000 1.00000 1.00000 1.00000 1.00000 1.00000 1.00000 1.00000 1.00000 1.00000 1.00000 1.00000 1.00000 1.00000 1.00000 1.00000 1.00000 1.00000 1.00000 1.00000 1.00000 1.00000 1.00000 1.00000 1.00000 1.00000 1.00000 1.00000 1.00000 1.00000 1.00000 1.00000 1.00000 1.00000 1.00000 1.00000 1.00000 1.00000 1.00000 1.00000 1.00000 1.00000 1.00000 1.00000 1.00000 1.00000 1.00000 1.00000 1.00000 1.00000 1.00000 1.00000 1.00000 1.00000 1.00000 1.00000 1.00000 1.00000 1.00000 1.00000 1.00000 1.00000 1.00000 1.00000 1.00000 1.00000 1.00000 1.00000 1.00000 1.00000 1.00000 1.00000 1.00000 1.00000 1.00000 1.00000 1.00000 1.00000 1.00000 1.00000 1.00000 1.00000 1.00000 1.00000 1.00000 1.00000 1.00000 1.00000 1.00000 1.00000 1.00000 1.00000 1.00000 1.00000 1.00000 1.00000 1.00000 1.00000 1.00000 1.00000 1.00000 1.00000 1.00000 1.00000 1.00000 1.00000 1.00000 1.00000 1.00000 1.00000 1.00000 1.00000 1.00000 1.00000 1.00000 1.00000 1.00000 1.00000 1.00000 1.00000 1.00000 1.00000 1.00000 1.00000 1.00000 1.00000 1.00000 1.00000 1.00000 1.00000 1.00000 1.00000 1.00000 1.00000 1.00000 1.00000 1.00000 1.00000 1.00000 1.00000 1.00000 1.00000 1.00000 1.00000 1.00000 1.00000 1.00000 1.00000 1.00000 1.00000 1.00000 1.00000 1.00000 1.00000 1.00000 1.00000 1.00000 1.00000 1.00000 1.00000 1.00000 1.00000 1.00000 1.00000 1.00000 1.00000 1.00000 1.00000 1.00000 1.00000 1.00000 1.00000 1.00000 1.00000 1.00000 1.00000 1.00000 1.00000 1.00000 1.00000 1.00000 1.00000 1.00000 1.00000 1.00000 1.00000 1.00000 1.00000 1.00000 1.00000 1.00000 1.00000 1.00000 1.00000 1.00000 1.00000 1.00000 1.00000 1.00000 1.00000 1.00000 1.00000 1.00000 1.00000 1.00000 1.00000 1.00000 1.00000 1.00000 1.00000 1.00000 1.00000 1.00000 1.00000 1.00000 1.00000 1.00000 1.00000 1.00000 1.00000 1.00000 1.00000 1.00000 1.00000 1.00000 1.00000 1.00000 1.00000 1.00000 1.00000 1.00000 1.00000 1.00000 1.00000 1.00000 1.00000 1.00000 1.00000 1.00000 1.00000 1.00000 1.00000 1.00000 1.00000 1.00000 1.00000 1.00000 1.00000 1.00000 1.00000 1.00000 1.00000 1.00000 1.00000 1.00000 1.00000 1.00000 1.00000 1.00000 1.00000 1.00000 1.00000 1.00000 1.00000 1.00000 1.00000 1.00000 1.00000 1.00000 1.00000 1.00000 1.00000 1.00000 1.00000 1.00000 1.00000 1.00000 1.00000 1.00000 1.00000 1.00000 1.00000 1.00000 1.00000 1.00000 1.00000 1.00000 1.00000 1.00000 1.00000 1.00000 1.00000 1.00000 1.00000 1.00000 1.00000 1.00000 1.00000 1.00000 1.00000 1.00000 1.00000 1.00000 1.00000 1.00000 1.00000 1.00000 1.00000 1.00000 1.00000 1.00000 1.00000 1.00000 1.00000 1.00000 1.00000 1.00000 1.00000 1.00000 1.00000 1.00000 1.00000 1.00000 1.00000 1.00000 1.00000 1.00000 1.00000 1.00000 1.00000 1.00000 1.00000 1.00000 1.00000 1.00000 1.00000 1.00000 1.00000 1.00000 1.00000 1.00000 1.00000 1.00000 1.00000 1.00000 1.00000 1.00000 1.00000 1.00000 1.00000 1.00000 1.00000 1.00000 1.00000 1.00000 1.00000 1.00000 1.00000 1.00000 1.00000 1.00000 1.00000 1.00000 1.00000 1.00000 1.00000 1.00000 1.00000 1.00000 1.00000 1.00000 1.00000 1.00000 1.00000 1.00000 1.00000 1.00000 1.00000 1.00000 1.00000 1.00000 1.00000 1.00000 1.00000 1.00000 1.00000 1.00000 1.00000 1.00000 1.00000 1.00000 1.00000 1.00000 1.00000 1.00000 1.00000 1.00000 1.00000 1.00000 1.00000 1.00000 1.00000 1.00000 1.00000 1.00000 1.00000 1.00000 1.00000 1.00000 1.00000 1.00000 1.00000 1.00000 1.00000 1.00000 1.00000 1.00000 1.00000 1.00000 1.00000 1.00000 1.00000 1.00000 1.00000 1.00000 1.00000 1.00000 1.00000 1.00000 1.00000 1.00000 1.00000 1.00000 1.00000 1.00000 1.00000 1.00000 1.00000 1.00000 1.00000 1.00000 1.00000 1.00000 1.00000 1.00000 1.00000 1.00000 1.00000 1.00000 1.00000 1.00000 1.00000 1.00000 1.00000 1.00000 1.00000 1.00000 1.00000 1.00000 1.00000 1.00000 1.00000 1.00000 1.00000 1.00000 1.00000 1.00000 1.00000 1.00000 1.00000 1.00000 1.00000 1.00000 1.00000 1.00000 1.00000 1.00000 1.00000 1.00000 1.00000 1.00000 1.00000 1.00000 1.00000 1.00000 1.00000 1.00000 1.00000 1.00000 1.00000 1.00000 1.00000 1.00000 1.00000 1.00000 1.00000 1.00000 1.00000 1.00000 1.00000 1.00000 1.00000 1.00000 1.00000 1.00000 1.00000 1.00000 1.00000 1.00000 1.00000 1.00000 1.00000 1.00000 1.00000 1.00000 1.00000 1.00000 1.00000 1.00000 1.00000 1.00000 1.00000 1.00000 1.00000 1.00000 1.00000 1.00000 1.00000 1.00000 1.00000 1.00000 1.00000 1.00000 1.00000 1.00000 1.00000 1.00000 1.00000 1.00000 1.00000 1.00000 1.00000 1.00000 1.00000 1.00000 1.00000 1.00000 1.00000 1.00000 1.00000 1.00000 1.00000 1.00000 1.00000 1.00000 1.00000 1.00000 1.00000 1.00000 1.00000 1.00000 1.00000 1.00000 1.00000 1.00000 1.00000 1.00000 1.00000 1.00000 1.00000 1.00000 1.00000 1.00000 1.00000 1.00000 1.00000 1.00000 1.00000 1.00000 1.00000 1.00000 1.00000 1.00000 1.00000 1.00000 1.00000 1.00000 1.00000 1.00000 1.00000 1.00000 1.00000 1.00000 1.00000 1.00000 1.00000 1.00000 1.00000 1.00000 1.00000 1.00000 1.00000 1.00000 1.00000 1.00000 1.00000 1.00000 1.00000 1.00000 1.00000 1.00000 1.00000 1.00000 1.00000 1.00000 1.00000 1.00000 1.00000 1.00000 1.00000 1.00000 1.00000 1.00000 1.00000 1.00000 1.00000 1.00000 1.00000 1.00000 1.00000 1.00000 1.00000 1.00000 1.00000 1.00000 1.00000 1.00000 1.00000 1.00000 1.00000 1.00000 1.00000 1.00000 1.00000 1.00000 1.00000 1.00000 1.00000 1.00000 1.00000 1.00000 1.00000 1.00000 1.00000 1.00000 1.00000 1.00000 1.00000 1.00000 1.00000 1.00000 1.00000 1.00000 1.00000 1.00000 1.00000 1.00000 1.00000 1.00000 1.00000 1.00000 1.00000 1.00000 1.00000 1.00000 1.00000 1.00000 1.00000 1.00000 1.00000 1.00000 1.00000 1.00000 1.00000 1.00000 1.00000 1.00000 1.00000 1.00000 1.00000 1.00000 1.00000 1.00000 1.00000 1.00000 1.00000 1.00000 1.00000 1.00000 1.00000 1.00000 1.00000 1.00000 1.00000 1.00000 1.00000 1.00000 1.00000 1.00000 1.00000 1.00000 1.00000 1.00000 1.00000 1.00000 1.00000 1.00000 1.00000 1.00000 1.00000 1.00000 1.00000 1.00000 1.00000 1.00000 1.00000 1.00000 1.00000 1.00000 1.00000 1.00000 1.00000 1.00000 1.00000 1.00000 1.00000 1.00000 1.00000 1.00000 1.00000 1.00000 1.00000 1.00000 1.00000 1.00000 1.00000 1.00000 1.00000 1.00000 1.00000 1.00000 1.00000 1.00000 1.00000 1.00000 1.00000 1.00000 1.00000 1.00000 1.00000 1.00000 1.00000 1.00000 1.00000 1.00000 1.00000 1.00000 1.00000 1.00000 1.00000 1.00000 1.00000 1.00000 1.00000 1.00000 1.00000 1.00000 1.00000 1.00000 1.00000 1.00000 1.00000 1.00000 1.00000 1.00000 1.00000 1.00000 1.00000 1.00000 1.00000 1.00000 1.00000 1.00000 1.00000 1.00000 1.00000 1.00000 1.00000 1.00000 1.00000 1.00000 1.00000 1.00000 1.00000 1.00000 1.00000 1.00000 1.00000 1.00000 1.00000 1.00000 1.00000 1.00000 1.00000 1.00000 1.00000 1.00000 1.00000 1.00000 1.00000 1.00000 1.00000 1.00000 1.00000 1.00000 1.00000 1.00000 1.00000 1.00000 1.00000 1.00000 1.00000 1.00000 1.00000 1.00000 1.00000 1.00000 1.00000 1.00000 1.00000 1.00000 1.00000 1.00000 1.00000 1.00000 1.00000 1.00000 1.00000 1.00000 1.00000 1.00000 1.00000 1.00000 1.00000 1.00000 1.00000 1.00000 1.00000 1.00000 1.00000 1.00000 1.00000 1.00000 1.00000 1.00000 1.00000 1.00000 1.00000 1.00000 1.00000 1.00000 1.00000 1.00000 1.00000 1.00000 1.00000 1.00000 1.00000 1.00000 1.00000 1.00000 1.00000 1.00000 1.00000 1.00000 1.00000 1.00000 1.00000 1.00000 1.00000 1.00000 1.00000 1.00000 1.00000 1.00000 1.00000 1.00000 1.00000 1.00000 1.00000 1.00000 1.00000 1.00000 1.00000 1.00000 1.00000 1.00000 1.00000 1.00000 1.00000 1.00000 1.00000 1.00000 1.00000 1.00000 1.00000 1.00000 1.00000 1.00000 1.00000 1.00000 1.00000 1.00000 1.00000 1.00000 1.00000 1.00000 1.00000 1.00000 1.00000 1.00000 1.00000 1.00000 1.00000 1.00000 1.00000 1.00000 1.00000 1.00000 1.00000 1.00000 1.00000 1.00000 1.00000 1.00000 1.00000 1.00000 1.00000 1.00000 1.00000 1.00000 1.00000 1.00000 1.00000 1.00000 1.00000 1.00000 1.00000 1.00000 1.00000 1.00000 1.00000 1.00000 1.00000 1.00000 1.00000 1.00000 1.00000 1.00000 1.00000 1.00000 1.00000 1.00000 1.00000 1.00000 1.00000 1.00000 1.00000 1.00000 1.00000 1.00000 1.00000 1.00000 1.00000 1.00000 1.00000 1.00000 1.00000 1.00000 1.00000 1.00000 1.00000 1.00000 1.00000 1.00000 1.00000 1.00000 1.00000 1.00000 1.00000 1.00000 1.00000 1.00000 1.00000 1.00000 1.00000 1.00000 1.00000 1.00000 1.00000 1.00000 1.00000 1.00000 1.00000 1.00000 1.00000 1.00000 1.00000 1.00000 1.00000 1.00000 1.00000 1.00000 1.00000 1.00000 1.00000 1.00000 1.00000 1.00000 1.00000 1.00000 1.00000 1.00000 1.00000 1.00000 1.00000 1.00000 1.00000 1.00000 1.00000 1.00000 1.00000 1.00000 1.00000 1.00000 1.00000 1.00000 1.00000 1.00000 1.00000 1.00000 1.00000 1.00000 1.00000 1.00000 1.00000 1.00000 1.00000 1.00000 1.00000 1.00000 1.00000 1.00000 1.00000 1.00000 1.00000 1.00000 1.00000 1.00000 1.00000 1.00000 1.00000 1.00000 1.00000 1.00000 1.00000 1.00000 1.00000 1.00000 1.00000 1.00000 1.00000 1.00000 1.00000 1.00000 1.00000 1.00000 1.00000 1.00000 1.00000 1.00000 1.00000 1.00000 1.00000 1.00000 1.00000 1.00000 1.00000 1.00000 1.00000 1.00000 1.00000 1.00000 1.00000 1.00000 1.00000 1.00000 1.00000 1.00000 1.00000 1.00000 1.00000 1.00000 1.00000 1.00000 1.00000 1.00000 1.00000 1.00000 1.00000 1.00000 1.00000 1.00000 1.00000 1.00000 1.00000 1.00000 1.00000 1.00000 1.00000 1.00000 1.00000 1.00000 1.00000 1.00000 1.00000 1.00000 1.00000 1.00000 1.00000 1.00000 1.00000 1.00000 1.00000 1.00000 1.00000 1.00000 1.00000 1.00000 1.00000 1.00000 1.00000 1.00000 1.00000 1.00000 1.00000 1.00000 1.00000 1.00000 1.00000 1.00000 1.00000 1.00000 1.00000 1.00000 1.00000 1.00000 1.00000 1.00000 1.00000 1.00000 1.00000 1.00000 1.00000 1.00000 1.00000 1.00000 1.00000 1.00000 1.00000 1.00000 1.00000 1.00000 1.00000 1.00000 1.00000 1.00000 1.00000 1.00000 1.00000 1.00000 1.00000 1.00000 1.00000 1.00000 1.00000 1.00000 1.00000 1.00000 1.00000 1.00000 1.00000 1.00000 1.00000 1.00000 1.00000 1.00000 1.00000 1.00000 1.00000 1.00000 1.00000 1.00000 1.00000 1.00000 1.00000 1.00000 1.00000 1.00000 1.00000 1.00000 1.00000 1.00000 1.00000 1.00000 1.00000 1.00000 1.00000 1.00000 1.00000 1.00000 1.00000 1.00000 1.00000 1.00000 1.00000 1.00000 1.00000 1.00000 1.00000 1.00000 1.00000 1.00000 1.00000 1.00000 1.00000 1.00000 1.00000 1.00000 1.00000 1.00000 1.00000 1.00000 1.00000 1.00000 1.00000 1.00000 1.00000 1.00000 1.00000 1.00000 1.00000 1.00000 1.00000 1.00000 1.00000 1.00000 1.00000 1.00000 1.00000 1.00000 1.00000 1.00000 1.00000 1.00000 1.00000 1.00000 1.00000 1.00000 1.00000 1.00000 1.00000 1.00000 1.00000 1.00000 1.00000 1.00000 1.00000 1.00000 1.00000 1.00000 1.00000 1.00000 1.00000 1.00000 1.00000 1.00000 1.00000 1.00000 1.00000 1.00000 1.00000 1.00000 1.00000 1.00000 1.00000 1.00000 1.00000 1.00000 1.00000 1.00000 1.00000 1.00000 1.00000 1.00000 1.00000 1.00000 1.00000 1.00000 1.00000 1.00000 1.00000 1.00000 1.00000 1.00000 1.00000 1.00000 1.00000 1.00000 1.00000 1.00000 1.00000 1.00000 1.00000 1.00000 1.00000 1.00000 1.00000 1.00000 1.00000 1.00000 1.00000 1.00000 1.00000 1.00000 1.00000 1.00000 1.00000 1.00000 1.00000 1.00000 1.00000 1.00000 1.00000 1.00000 1.00000 1.00000 1.00000 1.00000 1.00000 1.00000 1.00000 1.00000 1.00000 1.00000 1.00000 1.00000 1.00000 1.00000 1.00000 1.00000 1.00000 1.00000 1.00000 1.00000 1.00000 1.00000 1.00000 1.00000 1.00000 1.00000 1.00000 1.00000 1.00000 1.00000 1.00000 1.00000 1.00000 1.00000 1.00000 1.00000 1.00000 1.00000 1.00000 1.00000 1.00000 1.00000 1.00000 1.00000 1.00000 1.00000 1.00000 1.00000 1.00000 1.00000 1.00000 1.00000 1.00000 1.00000 1.00000 1.00000 1.00000 1.00000 1.00000 1.00000 1.00000 1.00000 1.00000 1.00000 1.00000 1.00000 1.00000 1.00000 1.00000 1.00000 1.00000 1.00000 1.00000 1.00000 1.00000 1.00000 1.00000 1.00000 1.00000 1.00000 1.00000 1.00000 1.00000 1.00000 1.00000 1.00000 1.00000 1.00000 1.00000 1.00000 1.00000 1.00000 1.00000 1.00000 1.00000 1.00000 1.00000 1.00000 1.00000 1.00000 1.00000 1.00000 1.00000 1.00000 1.00000 1.00000 1.00000 1.00000 1.00000 1.00000 1.00000 1.00000 1.00000 1.00000 1.00000 1.00000 1.00000 1.00000 1.00000 1.00000 1.00000 1.00000 1.00000 1.00000 1.00000 1.00000 1.00000 1.00000 1.00000 1.00000 1.00000 1.00000 1.00000 1.00000 1.00000 1.00000 1.00000 1.00000 1.00000 1.00000 1.00000 1.00000 1.00000 1.00000 1.00000 1.00000 1.00000 1.00000 1.00000 1.00000 1.00000 1.00000 1.00000 1.00000 1.00000 1.00000 1.00000 1.00000 1.00000 1.00000 1.00000 1.00000 1.00000 1.00000 1.00000 1.00000 1.00000 1.00000 1.00000 1.00000 1.00000 1.00000 1.00000 1.00000 1.00000 1.00000 1.00000 1.00000 1.00000 1.00000 1.00000 1.00000 1.00000 1.00000 1.00000 1.00000 1.00000 1.00000 1.00000 1.00000 1.00000 1.00000 1.00000 1.00000 1.00000 1.00000 1.00000 1.00000 1.00000 1.00000 1.00000 1.00000 1.00000 1.00000 1.00000 1.00000 1.00000 1.00000 1.00000 1.00000 1.00000 1.00000 1.00000 1.00000 1.00000 1.00000 1.00000 1.00000 1.00000 1.00000 1.00000 1.00000 1.00000 1.00000 1.00000 1.00000 1.00000 1.00000 1.00000 1.00000 1.00000 1.00000 1.00000 1.00000 1.00000 1.00000 1.00000 1.00000 1.00000 1.00000 1.00000 1.00000 1.00000 1.00000 1.00000 1.00000 1.00000 1.00000 1.00000 1.00000 1.00000 1.00000 1.00000 1.00000 1.00000 1.00000 1.00000 1.00000 1.00000 1.00000 1.00000 1.00000 1.00000 1.00000 1.00000 1.00000 1.00000 1.00000 1.00000 1.00000 1.00000 1.00000 1.00000 1.00000 1.00000 1.00000 1.00000 1.00000 1.00000 1.00000 1.00000 1.00000 1.00000 1.00000 1.00000 1.00000 1.00000 1.00000 1.00000 1.00000 1.00000 1.00000 1.00000 1.00000 1.00000 1.00000 1.00000 1.00000 1.00000 1.00000 1.00000 1.00000 1.00000 1.00000 1.00000 1.00000 1.00000 1.00000 1.00000 1.00000 1.00000 1.00000 1.00000 1.00000 1.00000 1.00000 1.00000 1.00000 1.00000 1.00000 1.00000 1.00000 1.00000 1.00000 1.00000 1.00000 1.00000 1.00000 1.00000 1.00000 1.00000 1.00000 1.00000 1.00000 1.00000 1.00000 1.00000 1.00000 1.00000 1.00000 1.00000 1.00000 1.00000 1.00000 1.00000 1.00000 1.00000 1.00000 1.00000 1.00000 1.00000 1.00000 1.00000 1.00000 1.00000 1.00000 1.00000 1.00000 1.00000 1.00000 1.00000 1.00000 1.00000 1.00000 1.00000 1.00000 1.00000 1.00000 1.00000 1.00000 1.00000 1.00000 1.00000 1.00000 1.00000 1.00000 1.00000 1.00000 1.00000 1.00000 1.00000 1.00000 1.00000 1.00000 1.00000 1.00000 1.00000 1.00000 1.00000 1.00000 1.00000 1.00000 1.00000 1.00000 1.00000 1.00000 1.00000 1.00000 1.00000 1.00000 1.00000 1.00000 1.00000 1.00000 1.00000 1.00000 1.00000 1.00000 1.00000 1.00000 1.00000 1.00000 1.00000 1.00000 1.00000 1.00000 1.00000 1.00000 1.00000 1.00000 1.00000 1.00000 1.00000 1.00000 1.00000 1.00000 1.00000 1.00000 1.00000 1.00000 1.00000 1.00000 1.00000 1.00000 1.00000 1.00000 1.00000 1.00000 1.00000 1.00000 1.00000 1.00000 1.00000 1.00000 1.00000 1.00000 1.00000 1.00000 1.00000 1.00000 1.00000 1.00000 1.00000 1.00000 1.00000 1.00000 1.00000 1.00000 1.00000 1.00000 1.00000 1.00000 1.00000 1.00000 1.00000 1.00000 1.00000 1.00000 1.00000 1.00000 1.00000 1.00000 1.00000 1.00000 1.00000 1.00000 1.00000 1.00000 1.00000 1.00000 1.00000 1.00000 1.00000 1.00000 1.00000 1.00000 1.00000 1.00000 1.00000 1.00000 1.00000 1.00000 1.00000 1.00000 1.00000 1.00000 1.00000 1.00000 1.00000 1.00000 1.00000 1.00000 1.00000 1.00000 1.00000 1.00000 1.00000 1.00000 1.00000 1.00000 1.00000 1.00000 1.00000 1.00000 1.00000 1.00000 1.00000 1.00000 1.00000 1.00000 1.00000 1.00000 1.00000 1.00000 1.00000 1.00000 1.00000 1.00000 1.00000 1.00000 1.00000 1.00000 1.00000 1.00000 1.00000 1.00000 1.00000 1.00000 1.00000 1.00000 1.00000 1.00000 1.00000 1.00000 1.00000 1.00000 1.00000 1.00000 1.00000 1.00000 1.00000 1.00000 1.00000 1.00000 1.00000 1.00000 1.00000 1.00000 1.00000 1.00000 1.00000 1.00000 1.00000 1.00000 1.00000 1.00000 1.00000 1.00000 1.00000 1.00000 1.00000 1.00000 1.00000 1.00000 1.00000 1.00000 1.00000 1.00000 1.00000 1.00000 1.00000 1.00000 1.00000 1.00000 1.00000 1.00000 1.00000 1.00000 1.00000 1.00000 1.00000 1.00000 1.00000 1.00000 1.00000 1.00000 1.00000 1.00000 1.00000 1.00000 1.00000 1.00000 1.00000 1.00000 1.00000 1.00000 1.00000 1.00000 1.00000 1.00000 1.00000 1.00000 1.00000 1.00000 1.00000 1.00000 1.00000 1.00000 1.00000 1.00000 1.00000 1.00000 1.00000 1.00000 1.00000 1.00000 1.00000 1.00000 1.00000 1.00000 1.00000 1.00000 1.00000 1.00000 1.00000 1.00000 1.00000 1.00000 1.00000 1.00000 1.00000 1.00000 1.00000 1.00000 1.00000 1.00000 1.00000 1.00000 1.00000 1.00000 1.00000 1.00000 1.00000 1.00000 1.00000 1.00000 1.00000 1.00000 1.00000 1.00000 1.00000 1.00000 1.00000 1.00000 1.00000 1.00000 1.00000 1.00000 1.00000 1.00000 1.00000 1.00000 1.00000 1.00000 1.00000 1.00000 1.00000 1.00000 1.00000 1.00000 1.00000 1.00000 1.00000 1.00000 1.00000 1.00000 1.00000 1.00000 1.00000 1.00000 1.00000 1.00000 1.00000 1.00000 1.00000 1.00000 1.00000 1.00000 1.00000 1.00000 1.00000 1.00000 1.00000 1.00000 1.00000 1.00000 1.00000 1.00000 1.00000 1.00000 1.00000 1.00000 1.00000 1.00000 1.00000 1.00000 1.00000 1.00000 1.00000 1.00000 1.00000 1.00000 1.00000 1.00000 1.00000 1.00000 1.00000 1.00000 1.00000 1.00000 1.00000 1.00000 1.00000 1.00000 1.00000 1.00000 1.00000 1.00000 1.00000 1.00000 1.00000 1.00000 1.00000 1.00000 1.00000 1.00000 1.00000 1.00000 1.00000 1.00000 1.00000 1.00000 1.00000 1.00000 1.00000 1.00000 1.00000 1.00000 1.00000 1.00000 1.00000 1.00000 1.00000 1.00000 1.00000 1.00000 1.00000 1.00000 1.00000 1.00000 1.00000 1.00000 1.00000 1.00000 1.00000 1.00000 1.00000 1.00000 1.00000 1.00000 1.00000 1.00000 1.00000 1.00000 1.00000 1.00000 1.00000 1.00000 1.00000 1.00000 1.00000 1.00000 1.00000 1.00000 1.00000 1.00000 1.00000 1.00000 1.00000 1.00000 1.00000 1.00000 1.00000 1.00000 1.00000 1.00000 1.00000 1.00000 1.00000 1.00000 1.00000 1.00000 1.00000 1.00000 1.00000 1.00000 1.00000 1.00000 1.00000 1.00000 1.00000 1.00000 1.00000 1.00000 1.00000 1.00000 1.00000 1.00000 1.00000 1.00000 1.00000 1.00000 1.00000 1.00000 1.00000 1.00000 1.00000 1.00000 1.00000 1.00000 1.00000 1.00000 1.00000 1.00000 1.00000 1.00000 1.00000 1.00000 1.00000 1.00000 1.00000 1.00000 1.00000 1.00000 1.00000 1.00000 1.00000 1.00000 1.00000 1.00000 1.00000 1.00000 1.00000 1.00000 1.00000 1.00000 1.00000 1.00000 1.00000 1.00000 1.00000 1.00000 1.00000 1.00000 1.00000 1.00000 1.00000 1.00000 1.00000 1.00000 1.00000 1.00000 1.00000 1.00000 1.00000 1.00000 1.00000 1.00000 1.00000 1.00000 1.00000 1.00000 1.00000 1.00000 1.00000 1.00000 1.00000 1.00000 1.00000 1.00000 1.00000 1.00000 1.00000 1.00000 1.00000 1.00000 1.00000 1.00000 1.00000 1.00000 1.00000 1.00000 1.00000 1.00000 1.00000 1.00000 1.00000 1.00000 1.00000 1.00000 1.00000 1.00000 1.00000 1.00000 1.00000 1.00000 1.00000 1.00000 1.00000 1.00000 1.00000 1.00000 1.00000 1.00000 1.00000 1.00000 1.00000 1.00000 1.00000 1.00000 1.00000 1.00000 1.00000 1.00000 1.00000 1.00000 1.00000 1.00000 1.00000 1.00000 1.00000 1.00000 1.00000 1.00000 1.00000 1.00000 1.00000 1.00000 1.00000 1.00000 1.00000 1.00000 1.00000 1.00000 1.00000 1.00000 1.00000 1.00000 1.00000 1.00000 1.00000 1.00000 1.00000 1.00000 1.00000 1.00000 1.00000 1.00000 1.00000 1.00000 1.00000 1.00000 1.00000 1.00000 1.00000 1.00000 1.00000 1.00000 1.00000 1.00000 1.00000 1.00000 1.00000 1.00000 1.00000 1.00000 1.00000 1.00000 1.00000 1.00000 1.00000 1.00000 1.00000 1.00000 1.00000 1.00000 1.00000 1.00000 1.00000 1.00000 1.00000 1.00000 1.00000 1.00000 1.00000 1.00000 1.00000 1.00000 1.00000 1.00000 1.00000 1.00000 1.00000 1.00000 1.00000 1.00000 1.00000 1.00000 1.00000 1.00000 1.00000 1.00000 1.00000 1.00000 1.00000 1.00000 1.00000 1.00000 1.00000 1.00000 1.00000 1.00000 1.00000 1.00000 1.00000 1.00000 1.00000 1.00000 1.00000 1.00000 1.00000 1.00000 1.00000 1.00000 1.00000 1.00000 1.00000 1.00000 1.00000 1.00000 1.00000 1.00000 1.00000 1.00000 1.00000 1.00000 1.00000 1.00000 1.00000 1.00000 1.00000 1.00000 1.00000 1.00000 1.00000 1.00000 1.00000 1.00000 1.00000 1.00000 1.00000 1.00000 1.00000 1.00000 1.00000 1.00000 1.00000 1.00000 1.00000 1.00000 1.00000 1.00000 1.00000 1.00000 1.00000 1.00000 1.00000 1.00000 1.00000 1.00000 1.00000 1.00000 1.00000 1.00000 1.00000 1.00000 1.00000 1.00000 1.00000 1.00000 1.00000 1.00000 1.00000 1.00000 1.00000 1.00000 1.00000 1.00000 1.00000 1.00000 1.00000 1.00000 1.00000 1.00000 1.00000 1.00000 1.00000 1.00000 1.00000 1.00000 1.00000 1.00000 1.00000 1.00000 1.00000 1.00000 1.00000 1.00000 1.00000 1.00000 1.00000 1.00000 1.00000 1.00000 1.00000 1.00000 1.00000 1.00000 1.00000 1.00000 1.00000 1.00000 1.00000 1.00000 1.00000 1.00000 1.00000 1.00000 1.00000 1.00000 1.00000 1.00000 1.00000 1.00000 1.00000 1.00000 1.00000 1.00000 1.00000 1.00000 1.00000 1.00000 1.00000 1.00000 1.00000 1.00000 1.00000 1.00000 1.00000 1.00000 1.00000 1.00000 1.00000 1.00000 1.00000 1.00000 1.00000 1.00000 1.00000 1.00000 1.00000 1.00000 1.00000 1.00000 1.00000 1.00000 1.00000 1.00000 1.00000 1.00000 1.00000 1.00000 1.00000 1.00000 1.00000 1.00000 1.00000 1.00000 1.00000 1.00000 1.00000 1.00000 1.00000 1.00000 1.00000 1.00000 1.00000 1.00000 1.00000 1.00000 1.00000 1.00000 1.00000 1.00000 1.00000 1.00000 1.00000 1.00000 1.00000 1.00000 1.00000 1.00000 1.00000 1.00000 1.00000 1.00000 1.00000 1.00000 1.00000 1.00000 1.00000 1.00000 1.00000 1.00000 1.00000 1.00000 1.00000 1.00000 1.00000 1.00000 1.00000 1.00000 1.00000 1.00000 1.00000 1.00000 1.00000 1.00000 1.00000 1.00000 1.00000 1.00000 1.00000 1.00000 1.00000 1.00000 1.00000 1.00000 1.00000 1.00000 1.00000 1.00000 1.00000 1.00000 1.00000 1.00000 1.00000 1.00000 1.00000 1.00000 1.00000 1.00000 1.00000 1.00000 1.00000 1.00000 1.00000 1.00000 1.00000 1.00000 1.00000 1.00000 1.00000 1.00000 1.00000 1.00000 1.00000 1.00000 1.00000 1.00000 1.00000 1.00000 1.00000 1.00000 1.00000 1.00000 1.00000 1.00000 1.00000 1.00000 1.00000 1.00000 1.00000 1.00000 1.00000 1.00000 1.00000 1.00000 1.00000 1.00000 1.00000 1.00000 1.00000 1.00000 1.00000 1.00000 1.00000 1.00000 1.00000 1.00000 1.00000 1.00000 1.00000 1.00000 1.00000 1.00000 1.00000 1.00000 1.00000 1.00000 1.00000 1.00000 1.00000 1.00000 1.00000 1.00000 1.00000 1.00000 1.00000 1.00000 1.00000 1.00000 1.00000 1.00000 1.00000 1.00000 1.00000 1.00000 1.00000 1.00000 1.00000 1.00000 1.00000 1.00000 1.00000 1.00000 1.00000 1.00000 1.00000 1.00000 1.00000 1.00000 1.00000 1.00000 1.00000 1.00000 1.00000 1.00000 1.00000 1.00000 1.00000 1.00000 1.00000 1.00000 1.00000 1.00000 1.00000 1.00000 1.00000 1.00000 1.00000 1.00000 1.00000 1.00000 1.00000 1.00000 1.00000 1.00000 1.00000 1.00000 1.00000 1.00000 1.00000 1.00000 1.00000 1.00000 1.00000 1.00000 1.00000 1.00000 1.00000 1.00000 1.00000 1.00000 1.00000 1.00000 1.00000 1.00000 1.00000 1.00000 1.00000 1.00000 1.00000 1.00000 1.00000 1.00000 1.00000 1.00000 1.00000 1.00000 1.00000 1.00000 1.00000 1.00000 1.00000 1.00000 1.00000 1.00000 1.00000 1.00000 1.00000 1.00000 1.00000 1.00000 1.00000 1.00000 1.00000 1.00000 1.00000 1.00000 1.00000 1.00000 1.00000 1.00000 1.00000 1.00000 1.00000 1.00000 1.00000 1.00000 1.00000 1.00000 1.00000 1.00000 1.00000 1.00000 1.00000 1.00000 1.00000 1.00000 1.00000 1.00000 1.00000 1.00000 1.00000 1.00000 1.00000 1.00000 1.00000 1.00000 1.00000 1.00000 1.00000 1.00000 1.00000 1.00000 1.00000 1.00000 1.00000 1.00000 1.00000 1.00000 1.00000 1.00000 1.00000 1.00000 1.00000 1.00000 1.00000 1.00000 1.00000 1.00000 1.00000 1.00000 1.00000 1.00000 1.00000 1.00000 1.00000 1.00000 1.00000 1.00000 1.00000 1.00000 1.00000 1.00000 1.00000 1.00000 1.00000 1.00000 1.00000 1.00000 1.00000 1.00000 1.00000 1.00000 1.00000 1.00000 1.00000 1.00000 1.00000 1.00000 1.00000 1.00000 1.00000 1.00000 1.00000 1.00000 1.00000 1.00000 1.00000 1.00000 1.00000 1.00000 1.00000 1.00000 1.00000 1.00000 1.00000 1.00000 1.00000 1.00000 1.00000 1.00000 1.00000 1.00000 1.00000 1.00000 1.00000 1.00000 1.00000 1.00000 1.00000 1.00000 1.00000 1.00000 1.00000 1.00000 1.00000 1.00000 1.00000 1.00000 1.00000 1.00000 1.00000 1.00000 1.00000 1.00000 1.00000 1.00000 1.00000 1.00000 1.00000 1.00000 1.00000 1.00000 1.00000 1.00000 1.00000 1.00000 1.00000 1.00000 1.00000 1.00000 1.00000 1.00000 1.00000 1.00000 1.00000 1.00000 1.00000 1.00000 1.00000 1.00000 1.00000 1.00000 1.00000 1.00000 1.00000 1.00000 1.00000 1.00000 1.00000 1.00000 1.00000 1.00000 1.00000 1.00000 1.00000 1.00000 1.00000 1.00000 1.00000 1.00000 1.00000 1.00000 1.00000 1.00000 1.00000 1.00000 1.00000 1.00000 1.00000 1.00000 1.00000 1.00000 1.00000 1.00000 1.00000 1.00000 1.00000 1.00000 1.00000 1.00000 1.00000 1.00000 1.00000 1.00000 1.00000 1.00000 1.00000 1.00000 1.00000 1.00000 1.00000 1.00000 1.00000 1.00000 1.00000 1.00000 1.00000 1.00000 1.00000 1.00000 1.00000 1.00000 1.00000 1.00000 1.00000 1.00000 1.00000 1.00000 1.00000 1.00000 1.00000 1.00000 1.00000 1.00000 1.00000 1.00000 1.00000 1.00000 1.00000 1.00000 1.00000 1.00000 1.00000 1.00000 1.00000 1.00000 1.00000 1.00000 1.00000 1.00000 1.00000 1.00000 1.00000 1.00000 1.00000 1.00000 1.00000 1.00000 1.00000 1.00000 1.00000 1.00000 1.00000 1.00000 1.00000 1.00000 1.00000 1.00000 1.00000 1.00000 1.00000 1.00000 1.00000 1.00000 1.00000 1.00000 1.00000 1.00000 1.00000 1.00000 1.00000 1.00000 1.00000 1.00000 1.00000 1.00000 1.00000 1.00000 1.00000 1.00000 1.00000 1.00000 1.00000 1.00000 1.00000 1.00000 1.00000 1.00000 1.00000 1.00000 1.00000 1.00000 1.00000 1.00000 1.00000 1.00000 1.00000 1.00000 1.00000 1.00000 1.00000 1.00000 1.00000 1.00000 1.00000 1.00000 1.00000 1.00000 1.00000 1.00000 1.00000 1.00000 1.00000 1.00000 1.00000 1.00000 1.00000 1.00000 1.00000 1.00000 1.00000 1.00000 1.00000 1.00000 1.00000 1.00000 1.00000 1.00000 1.00000 1.00000 1.00000 1.00000 1.00000 1.00000 1.00000 1.00000 1.00000 1.00000 1.00000 1.00000 1.00000 1.00000 1.00000 1.00000 1.00000 1.00000 1.00000 1.00000 1.00000 1.00000 1.00000 1.00000 1.00000 1.00000 1.00000 1.00000 1.00000 1.00000 1.00000 1.00000 1.00000 1.00000 1.00000 1.00000 1.00000 1.00000 1.00000 1.00000 1.00000</float_array>
					<technique_common>
						<accessor count="876" source="#ship_purple-Geometry-color-array" stride="4">
							<param type="float" name="R"></param>
							<param type="float" name="G"></param>
							<param type="float" name="B"></param>
							<param type="float" name="A"></param>
						</accessor>
					</technique_common>
				</source>
				<vertices id="ship_purple-Geometry-Vertex">
					<input semantic="POSITION" source="#ship_purple-Geometry-Position"/>
				</vertices>
				<triangles count="292" material="ship_a02_jpg_001">
					<input offset="0" semantic="VERTEX" source="#ship_purple-Geometry-Vertex"/>
					<input offset="1" semantic="NORMAL" source="#ship_purple-Geometry-Normals"/>
					<input offset="2" semantic="TEXCOORD" source="#ship_purple-Geometry-UV"/>
					<input offset="3" semantic="COLOR" source="#ship_purple-Geometry-color"/>
					<p>63 0 0 0 60 0 1 1 9 0 2 2 9 1 3 3 8 1 4 4 63 1 5 5 100 2 6 6 0 2 7 7 2 2 8 8 0 3 9 9 72 3 10 10 2 3 11 11 100 4 12 12 3 4 13 13 1 4 14 14 1 5 15 15 94 5 16 16 100 5 17 17 123 6 18 18 4 6 19 19 57 6 20 20 57 7 21 21 82 7 22 22 123 7 23 23 57 8 24 24 72 8 25 25 59 8 26 26 59 9 27 27 58 9 28 28 57 9 29 29 72 10 30 30 0 10 31 31 93 10 32 32 59 11 33 33 72 11 34 34 5 11 35 35 38 12 36 36 36 12 37 37 37 12 38 38 6 13 39 39 5 13 40 40 93 13 41 41 82 14 42 42 57 14 43 43 32 14 44 44 58 15 45 45 6 15 46 46 33 15 47 47 59 16 48 48 5 16 49 49 11 16 50 50 11 17 51 51 62 17 52 52 59 17 53 53 5 18 54 54 6 18 55 55 61 18 56 56 61 19 57 57 11 19 58 58 5 19 59 59 6 20 60 60 58 20 61 61 7 20 62 62 7 21 63 63 61 21 64 64 6 21 65 65 58 22 66 66 59 22 67 67 62 22 68 68 62 23 69 69 7 23 70 70 58 23 71 71 62 24 72 72 11 24 73 73 60 24 74 74 60 25 75 75 63 25 76 76 62 25 77 77 11 26 78 78 61 26 79 79 9 26 80 80 9 27 81 81 60 27 82 82 11 27 83 83 61 28 84 84 7 28 85 85 8 28 86 86 8 29 87 87 9 29 88 88 61 29 89 89 70 30 90 90 68 30 91 91 67 30 92 92 67 31 93 93 10 31 94 94 70 31 95 95 63 32 96 96 8 32 97 97 64 32 98 98 64 33 99 99 69 33 100 100 63 33 101 101 7 34 102 102 62 34 103 103 66 34 104 104 66 35 105 105 65 35 106 106 7 35 107 107 62 36 108 108 63 36 109 109 69 36 110 110 69 37 111 111 66 37 112 112 62 37 113 113 8 38 114 114 7 38 115 115 65 38 116 116 65 39 117 117 64 39 118 118 8 39 119 119 65 40 120 120 66 40 121 121 68 40 122 122 68 41 123 123 70 41 124 124 65 41 125 125 66 42 126 126 69 42 127 127 67 42 128 128 67 43 129 129 68 43 130 130 66 43 131 131 69 44 132 132 64 44 133 133 10 44 134 134 10 45 135 135 67 45 136 136 69 45 137 137 64 46 138 138 65 46 139 139 70 46 140 140 70 47 141 141 10 47 142 142 64 47 143 143 2 48 144 144 72 48 145 145 73 48 146 146 73 49 147 147 12 49 148 148 2 49 149 149 57 50 150 150 4 50 151 151 13 50 152 152 13 51 153 153 71 51 154 154 57 51 155 155 72 52 156 156 57 52 157 157 71 52 158 158 71 53 159 159 73 53 160 160 72 53 161 161 71 54 162 162 13 54 163 163 15 54 164 164 15 55 165 165 74 55 166 166 71 55 167 167 12 56 168 168 73 56 169 169 75 56 170 170 75 57 171 171 14 57 172 172 12 57 173 173 73 58 174 174 71 58 175 175 74 58 176 176 74 59 177 177 75 59 178 178 73 59 179 179 74 60 180 180 15 60 181 181 17 60 182 182 17 61 183 183 77 61 184 184 74 61 185 185 14 62 186 186 75 62 187 187 76 62 188 188 76 63 189 189 16 63 190 190 14 63 191 191 75 64 192 192 74 64 193 193 77 64 194 194 77 65 195 195 76 65 196 196 75 65 197 197 77 66 198 198 17 66 199 199 20 66 200 200 20 67 201 201 18 67 202 202 77 67 203 203 16 68 204 204 76 68 205 205 78 68 206 206 78 69 207 207 19 69 208 208 16 69 209 209 76 70 210 210 77 70 211 211 18 70 212 212 18 71 213 213 78 71 214 214 76 71 215 215 19 72 216 216 78 72 217 217 80 72 218 218 80 73 219 219 21 73 220 220 19 73 221 221 78 74 222 222 18 74 223 223 80 74 224 224 21 75 225 225 80 75 226 226 23 75 227 227 23 76 228 228 24 76 229 229 21 76 230 230 18 77 231 231 20 77 232 232 22 77 233 233 22 78 234 234 79 78 235 235 18 78 236 236 80 79 237 237 18 79 238 238 79 79 239 239 79 80 240 240 23 80 241 241 80 80 242 242 79 81 243 243 22 81 244 244 81 81 245 245 24 82 246 246 23 82 247 247 81 82 248 248 23 83 249 249 79 83 250 250 81 83 251 251 89 84 252 252 87 84 253 253 88 84 254 254 1 85 255 255 82 85 256 256 32 85 257 257 88 86 258 258 133 86 259 259 89 86 260 260 1 87 261 261 3 87 262 262 26 87 263 263 26 88 264 264 25 88 265 265 1 88 266 266 123 89 267 267 82 89 268 268 83 89 269 269 83 90 270 270 27 90 271 271 123 90 272 272 82 91 273 273 1 91 274 274 25 91 275 275 25 92 276 276 83 92 277 277 82 92 278 278 83 93 279 279 25 93 280 280 84 93 281 281 84 94 282 282 85 94 283 283 83 94 284 284 25 95 285 285 26 95 286 286 28 95 287 287 28 96 288 288 84 96 289 289 25 96 290 290 27 97 291 291 83 97 292 292 85 97 293 293 85 98 294 294 129 98 295 295 27 98 296 296 85 99 297 297 84 99 298 298 29 99 299 299 29 100 300 300 86 100 301 301 85 100 302 302 84 101 303 303 28 101 304 304 30 101 305 305 30 102 306 306 29 102 307 307 84 102 308 308 129 103 309 309 85 103 310 310 86 103 311 311 86 104 312 312 91 104 313 313 129 104 314 314 86 105 315 315 29 105 316 316 87 105 317 317 87 106 318 318 89 106 319 319 86 106 320 320 29 107 321 321 30 107 322 322 88 107 323 323 88 108 324 324 87 108 325 325 29 108 326 326 92 109 327 327 86 109 328 328 89 109 329 329 89 110 330 330 133 110 331 331 90 110 332 332 86 111 333 333 92 111 334 334 91 111 335 335 90 112 336 336 92 112 337 337 89 112 338 338 92 113 339 339 90 113 340 340 145 113 341 341 145 114 342 342 31 114 343 343 92 114 344 344 91 115 345 345 92 115 346 346 31 115 347 347 31 116 348 348 147 116 349 349 91 116 350 350 1 117 351 351 32 117 352 352 33 117 353 353 32 118 354 354 57 118 355 355 58 118 356 356 33 119 357 357 32 119 358 358 58 119 359 359 99 120 360 360 37 120 361 361 97 120 362 362 93 121 363 363 33 121 364 364 6 121 365 365 72 122 366 366 93 122 367 367 5 122 368 368 94 123 369 369 1 123 370 370 95 123 371 371 95 124 372 372 98 124 373 373 94 124 374 374 93 125 375 375 0 125 376 376 34 125 377 377 34 126 378 378 96 126 379 379 93 126 380 380 1 127 381 381 33 127 382 382 35 127 383 383 35 128 384 384 95 128 385 385 1 128 386 386 33 129 387 387 93 129 388 388 96 129 389 389 96 130 390 390 35 130 391 391 33 130 392 392 34 131 393 393 0 131 394 394 98 131 395 395 99 132 396 396 38 132 397 397 37 132 398 398 0 133 399 399 94 133 400 400 98 133 401 401 94 134 402 402 0 134 403 403 100 134 404 404 98 135 405 405 95 135 406 406 36 135 407 407 36 136 408 408 38 136 409 409 98 136 410 410 95 137 411 411 35 137 412 412 37 137 413 413 37 138 414 414 36 138 415 415 95 138 416 416 35 139 417 417 96 139 418 418 97 139 419 419 97 140 420 420 37 140 421 421 35 140 422 422 96 141 423 423 34 141 424 424 99 141 425 425 99 142 426 426 97 142 427 427 96 142 428 428 34 143 429 429 98 143 430 430 38 143 431 431 38 144 432 432 99 144 433 433 34 144 434 434 110 145 435 435 41 145 436 436 40 145 437 437 41 146 438 438 110 146 439 439 109 146 440 440 2 147 441 441 140 147 442 442 100 147 443 443 140 148 444 444 2 148 445 445 117 148 446 446 100 149 447 447 137 149 448 448 3 149 449 449 137 150 450 450 100 150 451 451 139 150 452 452 123 151 453 453 102 151 454 454 4 151 455 455 102 152 456 456 123 152 457 457 124 152 458 458 102 153 459 459 101 153 460 460 117 153 461 461 101 154 462 462 102 154 463 463 39 154 464 464 117 155 465 465 135 155 466 466 140 155 467 467 104 156 468 468 117 156 469 469 101 156 470 470 144 157 471 471 142 157 472 472 56 157 473 473 103 158 474 474 135 158 475 475 104 158 476 476 124 159 477 477 51 159 478 478 102 159 479 479 39 160 480 480 136 160 481 481 103 160 482 482 101 161 483 483 105 161 484 484 104 161 485 485 105 162 486 486 101 162 487 487 106 162 488 488 104 163 489 489 108 163 490 490 103 163 491 491 108 164 492 492 104 164 493 493 105 164 494 494 103 165 495 495 107 165 496 496 39 165 497 497 107 166 498 498 103 166 499 499 108 166 500 500 39 167 501 501 106 167 502 502 101 167 503 503 106 168 504 504 39 168 505 505 107 168 506 506 106 169 507 507 40 169 508 508 105 169 509 509 40 170 510 510 106 170 511 511 110 170 512 512 105 171 513 513 41 171 514 514 108 171 515 515 41 172 516 516 105 172 517 517 40 172 518 518 108 173 519 519 109 173 520 520 107 173 521 521 109 174 522 522 108 174 523 523 41 174 524 524 43 175 525 525 114 175 526 526 42 175 527 527 114 176 528 528 43 176 529 529 116 176 530 530 110 177 531 531 112 177 532 532 109 177 533 533 112 178 534 534 110 178 535 535 115 178 536 536 107 179 537 537 113 179 538 538 106 179 539 539 113 180 540 540 107 180 541 541 111 180 542 542 106 181 543 543 115 181 544 544 110 181 545 545 115 182 546 546 106 182 547 547 113 182 548 548 109 183 549 549 111 183 550 550 107 183 551 551 111 184 552 552 109 184 553 553 112 184 554 554 111 185 555 555 42 185 556 556 113 185 557 557 42 186 558 558 111 186 559 559 43 186 560 560 113 187 561 561 114 187 562 562 115 187 563 563 114 188 564 564 113 188 565 565 42 188 566 566 115 189 567 567 116 189 568 568 112 189 569 569 116 190 570 570 115 190 571 571 114 190 572 572 112 191 573 573 43 191 574 574 111 191 575 575 43 192 576 576 112 192 577 577 116 192 578 578 2 193 579 579 118 193 580 580 117 193 581 581 118 194 582 582 2 194 583 583 12 194 584 584 102 195 585 585 13 195 586 586 4 195 587 587 13 196 588 588 102 196 589 589 44 196 590 590 117 197 591 591 44 197 592 592 102 197 593 593 44 198 594 594 117 198 595 595 118 198 596 596 44 199 597 597 15 199 598 598 13 199 599 599 15 200 600 600 44 200 601 601 46 200 602 602 12 201 603 603 45 201 604 604 118 201 605 605 45 202 606 606 12 202 607 607 14 202 608 608 118 203 609 609 46 203 610 610 44 203 611 611 46 204 612 612 118 204 613 613 45 204 614 614 46 205 615 615 17 205 616 616 15 205 617 617 17 206 618 618 46 206 619 619 119 206 620 620 14 207 621 621 47 207 622 622 45 207 623 623 47 208 624 624 14 208 625 625 16 208 626 626 45 209 627 627 119 209 628 628 46 209 629 629 119 210 630 630 45 210 631 631 47 210 632 632 119 211 633 633 20 211 634 634 17 211 635 635 20 212 636 636 119 212 637 637 120 212 638 638 16 213 639 639 48 213 640 640 47 213 641 641 48 214 642 642 16 214 643 643 19 214 644 644 47 215 645 645 120 215 646 646 119 215 647 647 120 216 648 648 47 216 649 649 48 216 650 650 19 217 651 651 121 217 652 652 48 217 653 653 121 218 654 654 19 218 655 655 21 218 656 656 48 219 657 657 121 219 658 658 120 219 659 659 21 220 660 660 122 220 661 661 121 220 662 662 122 221 663 663 21 221 664 664 24 221 665 665 120 222 666 666 22 222 667 667 20 222 668 668 22 223 669 669 120 223 670 670 49 223 671 671 121 224 672 672 49 224 673 673 120 224 674 674 49 225 675 675 121 225 676 676 122 225 677 677 49 226 678 678 81 226 679 679 22 226 680 680 24 227 681 681 81 227 682 682 122 227 683 683 122 228 684 684 81 228 685 685 49 228 686 686 132 229 687 687 88 229 688 688 50 229 689 689 137 230 690 690 51 230 691 691 124 230 692 692 88 231 693 693 132 231 694 694 133 231 695 695 137 232 696 696 26 232 697 697 3 232 698 698 26 233 699 699 137 233 700 700 125 233 701 701 123 234 702 702 126 234 703 703 124 234 704 704 126 235 705 705 123 235 706 706 27 235 707 707 124 236 708 708 125 236 709 709 137 236 710 710 125 237 711 711 124 237 712 712 126 237 713 713 126 238 714 714 128 238 715 715 125 238 716 716 128 239 717 717 126 239 718 718 127 239 719 719 125 240 720 720 28 240 721 721 26 240 722 722 28 241 723 723 125 241 724 724 128 241 725 725 27 242 726 726 127 242 727 727 126 242 728 728 127 243 729 729 27 243 730 730 129 243 731 731 127 244 732 732 131 244 733 733 128 244 734 734 131 245 735 735 127 245 736 736 130 245 737 737 128 246 738 738 30 246 739 739 28 246 740 740 30 247 741 741 128 247 742 742 131 247 743 743 129 248 744 744 130 248 745 745 127 248 746 746 130 249 747 747 129 249 748 748 91 249 749 749 130 250 750 750 50 250 751 751 131 250 752 752 50 251 753 753 130 251 754 754 132 251 755 755 131 252 756 756 88 252 757 757 30 252 758 758 88 253 759 759 131 253 760 760 50 253 761 761 134 254 762 762 132 254 763 763 130 254 764 764 132 255 765 765 90 255 766 766 133 255 767 767 130 256 768 768 91 256 769 769 134 256 770 770 90 257 771 771 132 257 772 772 134 257 773 773 134 258 774 774 145 258 775 775 90 258 776 776 145 259 777 777 134 259 778 778 146 259 779 779 91 260 780 780 146 260 781 781 134 260 782 782 146 261 783 783 91 261 784 784 147 261 785 785 137 262 786 786 136 262 787 787 51 262 788 788 51 263 789 789 39 263 790 790 102 263 791 791 136 264 792 792 39 264 793 793 51 264 794 794 143 265 795 795 141 265 796 796 142 265 797 797 135 266 798 798 103 266 799 799 136 266 800 800 117 267 801 801 104 267 802 802 135 267 803 803 139 268 804 804 53 268 805 805 137 268 806 806 53 269 807 807 139 269 808 808 55 269 809 809 135 270 810 810 52 270 811 811 140 270 812 812 52 271 813 813 135 271 814 814 138 271 815 815 137 272 816 816 54 272 817 817 136 272 818 818 54 273 819 819 137 273 820 820 53 273 821 821 136 274 822 822 138 274 823 823 135 274 824 824 138 275 825 825 136 275 826 826 54 275 827 827 55 276 828 828 140 276 829 829 52 276 830 830 143 277 831 831 142 277 832 832 144 277 833 833 140 278 834 834 55 278 835 835 139 278 836 836 139 279 837 837 100 279 838 838 140 279 839 839 55 280 840 840 56 280 841 841 53 280 842 842 56 281 843 843 55 281 844 844 144 281 845 845 53 282 846 846 142 282 847 847 54 282 848 848 142 283 849 849 53 283 850 850 56 283 851 851 54 284 852 852 141 284 853 853 138 284 854 854 141 285 855 855 54 285 856 856 142 285 857 857 138 286 858 858 143 286 859 859 52 286 860 860 143 287 861 861 138 287 862 862 141 287 863 863 52 288 864 864 144 288 865 865 55 288 866 866 144 289 867 867 52 289 868 868 143 289 869 869 31 290 870 870 145 290 871 871 146 290 872 872 31 291 873 873 146 291 874 874 147 291 875 875</p>
				</triangles>
			</mesh>
		</geometry>
	</library_geometries>
	<library_visual_scenes>
		<visual_scene id="Scene" name="Scene">
			<node layer="L1" id="ship_purple" name="ship_purple">
				<translate sid="translate">0.00000 0.00000 0.00000</translate>
				<rotate sid="rotateZ">0 0 1 0.00000</rotate>
				<rotate sid="rotateY">0 1 0 -0.00000</rotate>
				<rotate sid="rotateX">1 0 0 0.00000</rotate>
				<scale sid="scale">250.00000 250.00000 250.00000</scale>
				<instance_geometry url="#ship_purple-Geometry">
					<bind_material>
						<technique_common>
							<instance_material symbol="ship_a02_jpg_001" target="#ship_a02_jpg_001">
								<bind_vertex_input input_semantic="TEXCOORD" input_set="1" semantic="CHANNEL1"/>
							</instance_material>
						</technique_common>
					</bind_material>
				</instance_geometry>
			</node>
		</visual_scene>
	</library_visual_scenes>
	<library_physics_materials>
		<physics_material id="ship_purple-PhysicsMaterial" name="ship_purple-PhysicsMaterial">
			<technique_common>
				<dynamic_friction>0.5</dynamic_friction>
				<restitution>0.0</restitution>
				<static_friction>0.5</static_friction>
			</technique_common>
		</physics_material>
	</library_physics_materials>
	<library_physics_models>
		<physics_model id="Scene-PhysicsModel" name="Scene-PhysicsModel">
			<rigid_body name="ship_purple-RigidBody" sid="ship_purple-RigidBody">
				<technique_common>
					<dynamic>false</dynamic>
					<mass>0</mass>
					<instance_physics_material url="#ship_purple-PhysicsMaterial"/>
					<shape>
						<instance_geometry url="#ship_purple-Geometry"/>
					</shape>
				</technique_common>
			</rigid_body>
		</physics_model>
	</library_physics_models>
	<library_physics_scenes>
		<physics_scene id="Scene-Physics" name="Scene-Physics">
			<instance_physics_model url="#Scene-PhysicsModel">
				<instance_rigid_body body="ship_purple-RigidBody" target="#ship_purple"/>
			</instance_physics_model>
		</physics_scene>
	</library_physics_scenes>
	<scene>
		<instance_physics_scene url="#Scene-Physics"/>
		<instance_visual_scene url="#Scene"/>
	</scene>
</COLLADA>